<mxfile host="app.diagrams.net" agent="Mozilla/5.0 (Windows NT 10.0; Win64; x64) AppleWebKit/537.36 (KHTML, like Gecko) Chrome/129.0.0.0 Safari/537.36" version="24.7.16">
  <diagram name="Page-1" id="tqmjbpTwI4tSlBBPxJ07">
    <mxGraphModel dx="2284" dy="772" grid="1" gridSize="10" guides="1" tooltips="1" connect="1" arrows="1" fold="1" page="1" pageScale="1" pageWidth="850" pageHeight="1100" math="0" shadow="0">
      <root>
        <mxCell id="0" />
        <mxCell id="1" parent="0" />
        <mxCell id="yo1rX-GT7wiF01aTUaLk-1" value="" style="rounded=0;whiteSpace=wrap;html=1;" vertex="1" parent="1">
          <mxGeometry x="91.25" y="120" width="790" height="60" as="geometry" />
        </mxCell>
        <mxCell id="yo1rX-GT7wiF01aTUaLk-3" value="" style="rounded=0;whiteSpace=wrap;html=1;" vertex="1" parent="1">
          <mxGeometry x="100" y="125" width="90" height="50" as="geometry" />
        </mxCell>
        <mxCell id="yo1rX-GT7wiF01aTUaLk-2" value="Home/ Logo (link to landing page)" style="text;strokeColor=none;fillColor=none;align=left;verticalAlign=middle;spacingLeft=4;spacingRight=4;overflow=hidden;points=[[0,0.5],[1,0.5]];portConstraint=eastwest;rotatable=0;whiteSpace=wrap;html=1;" vertex="1" parent="1">
          <mxGeometry x="100" y="135" width="90" height="30" as="geometry" />
        </mxCell>
        <mxCell id="yo1rX-GT7wiF01aTUaLk-4" value="" style="rounded=0;whiteSpace=wrap;html=1;" vertex="1" parent="1">
          <mxGeometry x="800" y="140" width="70" height="35" as="geometry" />
        </mxCell>
        <mxCell id="yo1rX-GT7wiF01aTUaLk-5" value="Log in" style="text;strokeColor=none;fillColor=none;align=left;verticalAlign=middle;spacingLeft=4;spacingRight=4;overflow=hidden;points=[[0,0.5],[1,0.5]];portConstraint=eastwest;rotatable=0;whiteSpace=wrap;html=1;" vertex="1" parent="1">
          <mxGeometry x="810" y="140" width="60" height="30" as="geometry" />
        </mxCell>
        <mxCell id="yo1rX-GT7wiF01aTUaLk-6" value="" style="rounded=0;whiteSpace=wrap;html=1;" vertex="1" parent="1">
          <mxGeometry x="720" y="137.5" width="70" height="35" as="geometry" />
        </mxCell>
        <mxCell id="yo1rX-GT7wiF01aTUaLk-7" value="Register" style="text;strokeColor=none;fillColor=none;align=left;verticalAlign=middle;spacingLeft=4;spacingRight=4;overflow=hidden;points=[[0,0.5],[1,0.5]];portConstraint=eastwest;rotatable=0;whiteSpace=wrap;html=1;" vertex="1" parent="1">
          <mxGeometry x="725" y="137.5" width="60" height="30" as="geometry" />
        </mxCell>
        <mxCell id="yo1rX-GT7wiF01aTUaLk-8" value="" style="rounded=0;whiteSpace=wrap;html=1;" vertex="1" parent="1">
          <mxGeometry x="990" y="125" width="650" height="295" as="geometry" />
        </mxCell>
        <mxCell id="yo1rX-GT7wiF01aTUaLk-9" value="" style="rounded=0;whiteSpace=wrap;html=1;" vertex="1" parent="1">
          <mxGeometry x="1040" y="240" width="190" height="30" as="geometry" />
        </mxCell>
        <mxCell id="yo1rX-GT7wiF01aTUaLk-10" value="Email/ username" style="text;strokeColor=none;fillColor=none;align=left;verticalAlign=middle;spacingLeft=4;spacingRight=4;overflow=hidden;points=[[0,0.5],[1,0.5]];portConstraint=eastwest;rotatable=0;whiteSpace=wrap;html=1;" vertex="1" parent="1">
          <mxGeometry x="1070" y="240" width="150" height="30" as="geometry" />
        </mxCell>
        <mxCell id="yo1rX-GT7wiF01aTUaLk-11" value="" style="rounded=0;whiteSpace=wrap;html=1;" vertex="1" parent="1">
          <mxGeometry x="1040" y="290" width="190" height="30" as="geometry" />
        </mxCell>
        <mxCell id="yo1rX-GT7wiF01aTUaLk-12" value="Password" style="text;strokeColor=none;fillColor=none;align=left;verticalAlign=middle;spacingLeft=4;spacingRight=4;overflow=hidden;points=[[0,0.5],[1,0.5]];portConstraint=eastwest;rotatable=0;whiteSpace=wrap;html=1;" vertex="1" parent="1">
          <mxGeometry x="1070" y="290" width="150" height="30" as="geometry" />
        </mxCell>
        <mxCell id="yo1rX-GT7wiF01aTUaLk-13" value="Forgot password" style="text;strokeColor=none;fillColor=none;align=left;verticalAlign=middle;spacingLeft=4;spacingRight=4;overflow=hidden;points=[[0,0.5],[1,0.5]];portConstraint=eastwest;rotatable=0;whiteSpace=wrap;html=1;" vertex="1" parent="1">
          <mxGeometry x="1050" y="330" width="170" height="30" as="geometry" />
        </mxCell>
        <mxCell id="yo1rX-GT7wiF01aTUaLk-15" value="" style="rounded=0;whiteSpace=wrap;html=1;" vertex="1" parent="1">
          <mxGeometry x="1030" y="150" width="370" height="60" as="geometry" />
        </mxCell>
        <mxCell id="yo1rX-GT7wiF01aTUaLk-17" value="This is the log in page, but pretty" style="text;strokeColor=none;fillColor=none;align=left;verticalAlign=middle;spacingLeft=4;spacingRight=4;overflow=hidden;points=[[0,0.5],[1,0.5]];portConstraint=eastwest;rotatable=0;whiteSpace=wrap;html=1;" vertex="1" parent="1">
          <mxGeometry x="1050" y="170" width="190" height="30" as="geometry" />
        </mxCell>
        <mxCell id="yo1rX-GT7wiF01aTUaLk-18" value="" style="rounded=0;whiteSpace=wrap;html=1;" vertex="1" parent="1">
          <mxGeometry x="990" y="432.5" width="650" height="295" as="geometry" />
        </mxCell>
        <mxCell id="yo1rX-GT7wiF01aTUaLk-19" value="" style="rounded=0;whiteSpace=wrap;html=1;" vertex="1" parent="1">
          <mxGeometry x="1040" y="565" width="190" height="30" as="geometry" />
        </mxCell>
        <mxCell id="yo1rX-GT7wiF01aTUaLk-20" value="Email/ username" style="text;strokeColor=none;fillColor=none;align=left;verticalAlign=middle;spacingLeft=4;spacingRight=4;overflow=hidden;points=[[0,0.5],[1,0.5]];portConstraint=eastwest;rotatable=0;whiteSpace=wrap;html=1;" vertex="1" parent="1">
          <mxGeometry x="1070" y="565" width="150" height="30" as="geometry" />
        </mxCell>
        <mxCell id="yo1rX-GT7wiF01aTUaLk-21" value="" style="rounded=0;whiteSpace=wrap;html=1;" vertex="1" parent="1">
          <mxGeometry x="1040" y="615" width="190" height="30" as="geometry" />
        </mxCell>
        <mxCell id="yo1rX-GT7wiF01aTUaLk-22" value="Password" style="text;strokeColor=none;fillColor=none;align=left;verticalAlign=middle;spacingLeft=4;spacingRight=4;overflow=hidden;points=[[0,0.5],[1,0.5]];portConstraint=eastwest;rotatable=0;whiteSpace=wrap;html=1;" vertex="1" parent="1">
          <mxGeometry x="1070" y="615" width="150" height="30" as="geometry" />
        </mxCell>
        <mxCell id="yo1rX-GT7wiF01aTUaLk-24" value="" style="rounded=0;whiteSpace=wrap;html=1;" vertex="1" parent="1">
          <mxGeometry x="1030" y="475" width="370" height="60" as="geometry" />
        </mxCell>
        <mxCell id="yo1rX-GT7wiF01aTUaLk-25" value="This is the member registration page, but pretty" style="text;strokeColor=none;fillColor=none;align=left;verticalAlign=middle;spacingLeft=4;spacingRight=4;overflow=hidden;points=[[0,0.5],[1,0.5]];portConstraint=eastwest;rotatable=0;whiteSpace=wrap;html=1;" vertex="1" parent="1">
          <mxGeometry x="1050" y="495" width="310" height="30" as="geometry" />
        </mxCell>
        <mxCell id="yo1rX-GT7wiF01aTUaLk-26" value="" style="rounded=0;whiteSpace=wrap;html=1;" vertex="1" parent="1">
          <mxGeometry x="1040" y="660" width="190" height="30" as="geometry" />
        </mxCell>
        <mxCell id="yo1rX-GT7wiF01aTUaLk-27" value="Confirm Password" style="text;strokeColor=none;fillColor=none;align=left;verticalAlign=middle;spacingLeft=4;spacingRight=4;overflow=hidden;points=[[0,0.5],[1,0.5]];portConstraint=eastwest;rotatable=0;whiteSpace=wrap;html=1;" vertex="1" parent="1">
          <mxGeometry x="1070" y="660" width="150" height="30" as="geometry" />
        </mxCell>
        <mxCell id="yo1rX-GT7wiF01aTUaLk-28" value="" style="rounded=0;whiteSpace=wrap;html=1;" vertex="1" parent="1">
          <mxGeometry x="85" y="240" width="795" height="120" as="geometry" />
        </mxCell>
        <mxCell id="yo1rX-GT7wiF01aTUaLk-29" value="What does this page do" style="text;strokeColor=none;fillColor=none;align=left;verticalAlign=middle;spacingLeft=4;spacingRight=4;overflow=hidden;points=[[0,0.5],[1,0.5]];portConstraint=eastwest;rotatable=0;whiteSpace=wrap;html=1;" vertex="1" parent="1">
          <mxGeometry x="406.25" y="260" width="160" height="90" as="geometry" />
        </mxCell>
        <mxCell id="yo1rX-GT7wiF01aTUaLk-30" value="" style="rounded=0;whiteSpace=wrap;html=1;" vertex="1" parent="1">
          <mxGeometry x="210" y="132.5" width="80" height="40" as="geometry" />
        </mxCell>
        <mxCell id="yo1rX-GT7wiF01aTUaLk-33" value="this is footer" style="rounded=0;whiteSpace=wrap;html=1;" vertex="1" parent="1">
          <mxGeometry x="90" y="645" width="790" height="60" as="geometry" />
        </mxCell>
        <mxCell id="yo1rX-GT7wiF01aTUaLk-35" value="" style="shape=image;verticalLabelPosition=bottom;labelBackgroundColor=default;verticalAlign=top;aspect=fixed;imageAspect=0;image=data:image/png,iVBORw0KGgoAAAANSUhEUgAAARQAAALRCAYAAACavVzjAAAAAXNSR0IArs4c6QAAAARnQU1BAACxjwv8YQUAAAAJcEhZcwAADsMAAA7DAcdvqGQAAKDESURBVHhe7d0HgCVVmff/090TGHKQJDlnJEvOOUgGyUFBRVnUXf27rrtrWN/dfd91TYgCEkVRoggIkiXnnHMOkjPMTHf/7+d0n+F66e7p7lvd0z3zfIfL7Xur6tSpU+f5ned5qm6dlg022KCzpaUlobOzM7/7XP5G4+dGLCtlNNLXdoXetg2CYHTRsuGGG2aLH6yY1FNfRn/ob7lBEIwOWv2vJzEpotBo9PWf/V3/uX6bxu0amdryIAhGH1lQ0Cgm9X/X07is/jPq1/d9eTXSWG4QBKOfnEPJfzQIA95//4MexSAIgqAnpiRli3CUv72/++576eWX/zbl+zFjxqQJEybkz5MnT07vvfde/rue+vX6sw56Wm8w+0NVZTWzP1RVVtS9i6h7FyOx7taZNGlS1o22xRZb7LuNYlKYNGly+uCD91Nra2tehra2tjTTTDOlsWPH5u/b29vze3nVr6cSU1unt7IGs78qy2qm7o3rDXc7RN2j7lNbp3G9ZvYHn9G26KKLfjf/1QME5f3335tSKMqGCqZcllGtRsp6KjG1dfoqa6D7q7KsZuuOqsqKuncRde9ipNW9LG9bZJFFsqBYoRGC0tHRPmXlwnBWFAPdX5VlzagdpBB1j7oX+iqrLOvRQyk5FILinbszrSpaGOj+qixrRuwg9UTdo+6FnsqSPynfZ0HxZT0+ExUFdnZ2pHHjxk2Tija7vyrLmpE6SNQ96j6Q/eHDDz/M7z0KCnzXlUN5PwvKtKhoFfursqwZpYNE3aPu6O/+JGZd+eno6Pj7qzyF+pDnnXfezt9Ni4pWtb+RVHdUVVbUvYuoexfTqu5SIhyPLCi9XeVRCEGhPNOqolXubyTVHVWVFXXvIurexbSoOyGRR/mYoBTPxKvkUFw2xrSoKKrc30iqO6oqK+reRdS9i+Guu++8aMaUy8awQcHfXTmUj+5DGe6KDsX+RlLdUVVZUfcuou5dDHfdy3cfC3mKl4JGQcFwV3Qo9jeS6o6qyoq6dxF172I4616W9+Mqz98LCoazohiK/Y2kuqOqsqLuXUTduxiuupdlH/NQrFiwQU93ymK4KloYiv2NpLqjqrKi7l1E3bsYjrqX73u9ygMr26inO2UxHBWtZyj2N5LqjqrKirp3EXXvYijr/rE7Zf1Rnzsp7wrr605ZDGVFh2t/I6nuqKqsqHsXUfcuhqru+OCDD/L7FEGxYb2oQEFTu1MWQ1XR4dzfSKo7qior6t5F1L2Loaj7+PHjs07ky8ZTy6H0505ZDEVFh7thRlLdUVVZUfcuou5dVF33Xm9sgw3L+0DulEXVFcVwn9SRVHdUVVbUvYuoexdV1t13U57Y1peHUi4bY6AHU0VFy3rDfVJHUt1RVVlR9y6i7l1UWffyXb8EpXw30IOpoqJlveE+qSOp7qiqrKh7F9NL3Webbba02WabpS222CI9++yz6Z133snLUF+WfdZsPe23337581NPPZWXVVX38nlAgoL+FI6qKoqy3nCf1JFUd1RVVtS9i+mh7rPPPnvaaqut0r777pvmmmuu9PDDD6e33+7Ke8J6bvtYaaWV0hFHHJE233zz9Pjjj6e77rqre41q6l7+7lFQytUeglLFIyCHu5Gr3N9IqjuqKivq3sVor7tEqNciiyySNtlkkzTnnHNmUXnrrbfyOvax5JJLpqOOOiqtu+666dZbb01/+MMf0muvvZaXF5qte3nPz0PJf/XAlJUqeATkcDYyqtzfSKo7qior6t7FaK77xIkT06uvvppeeeWVLCobbrhhFpVHHnkkvfvuu2n55ZdPX/3qV9M666yTrr/++nTyySfnZVXWfUxLR/rgw0n5+495KPUojPpV9QjI4WrkodjfSKo7qior6t7FaK47USEohEWeZIMNNkjzzTdfLvvggw/Onsm1116bjjnmmHT//fdXXvcJtfLmeuvt9Ebtu78TFBvXoyDz8lT5CMiBVHRqZQ33SR1JdUdVZUXduxjNdScqL7/8cg5lllpqqSwiyyyzTM6d3HDDDenoo49O99xzz5DUfcLME9L8b7yZnunpsnE9ChmKR0BWWdZwn9SRVHdUVVbUvYvRXPfiqXAANtpoo+ylvPHGG+kXv/hFDncKVdd9woSZ0iwEpacb2+pRwFA9AnK4Gnl6rzuqKivq3sVorbtc5+KLL5523333nE956aWX8mVluZSHHnroY1d/UEXdx4xpS3O8827/BGUgN7b1Zx0MRVnDfVJHUt1RVVlR9y5GW91ts9xyy025msMjOeOMM7KguPozxxxz5GRsufqDqure2tqS5nrv/fRsf0Kegd7YNtCGGcpGrmd6rzuqKivq3sVoqTvK1Zz1119/Ss7k5ptvzonaxRZbLCdqy9WfN998M2+DKuo+btzYLCjP1f4ekKBgKBpmKBp5uPY3kuqOqsqKuncx0us+66yzphVWWCEdeeSR2TO57rrr8tWcu+++e0pORaK2ZudZbOaee+4sKnIrhWbrPnHipPRU998DFhQMRcNUWdZwn9SRVHdUVVbUvYuRXHchzUEHHZS23HLLdOONN2bPhJgUiIpcyuuvv56WWGKJtMYaa+Rcyi233NK9RhfN1r28T1VQ2tu77kVppOqGQZVlDXeHHEl1R1VlRd27GKl19/0CCyyQw5jf/e53+U7YRoqoCH+s/9hjj+VLyI0Mtu5+aVzWnaqg1NYf1kdAVlnWcHfIkVR3VFVW1L2LkVh3n/0o8IEHHkhPP/30lO8aMffwCy+8kJ555pn06KOP5s991WsgdcfHntjWEwqz4oQJE4a8YTAUZQ13hxxJdUdVZUXduxhpdfe7O7d2lN/m9LU/norciTKrrHuZ27jH56HUoyA3til0uE9qlWXNyHVHVWVF3buIundR1hHBlPvVpiooboopOZThbpiR1Mijue6oqqyoexdR9y6sQx+EUN6nKiiUR2FVVXSgBzOSGnk01x1VlRV17yLq3oXvvPoV8hRBQVUVHejBjKRGHs11R1VlRd27iLp34bsBCwqqquhAD2YkNfJorjuqKivq3kXUvQlBQVUVHejBjKRGHs11R1VlRd27mNHr7u9+CYpC+rqxbbgbZiQ18miuO6oqK+rexYxcdze3YaqCUttmqje2DXfDjKRGHs11R1VlRd27mBHrPqA7ZXkn/ZnbeLgbZiQ18miuO6oqK+rexYxWd5iKFFMVFD8ONHfpSGyYkdTIo7nuqKqsqHsXM1Ld6YNca79yKH6ZqMCR2jBVljUj1x1VlRV172JGqbtXr3Mb16OA99776E7ZkdowVZY1I9cdVZUVde9iRql7r3Mb12PjxjtlR2rDVFnWjFx3VFVW1L2LGaHu/b7K09OdsiO1Yaosa0auO6oqK+rexfRe9/J5QIKC4a7oQPdXZVkzct1RVVlR9y6m57qXv6cqKApqvLFtOCuKge6vyrJm5LqjqrKi7l1Mr3Uv71MVlNo2lcxtPNwNU2VZM3LdUVVZUfcupre6D+jGNgXYGKWwgs8yuwomOuW7Rsp6rleXz430p6z+rIOhKGtGrjuqKqs/66CsF3Uf+XX3d78fAfnOO+9MKaC33/T43rq9rYOyXn/W6ausge6vyrJm5LqjqrKi7l1ML3X37gFLaNlwww1r23XmD6j/+/33P0ivvPJyfmZkEARBTxAUMxJ6D6UIgqAyQlCCIKiMEJQgCCojBCUIgsoIQQmCoDJCUIIgqIwQlCAIKiMEJQiCyghBCYKgMkJQgiCojBCUIAgqIwQlCILKCEEJgqAyQlCCIKiMEJQgCCojBCUIgsoYNkHx7EnPqpwwYUL+7KFNs846a5prrrk+9ppjjjmmPNTJY+Zmm222/HcQBCObYXtiGyFZa621srBcc801WUw23njjLBiNeJzcfffdl1588cW0zDLLpIUWWijdcsst6Y033uheIwiCkUL9E9sGPC/PYJl55pnTBhtskOaee+707LPP5vf11luvRw+FR+Kht14rrLBCqtUxPffcc+nNN9/sLm1g2PdWW22Vttlmm/TJT34yPf744/mZmPXY55577pnr6KHc6lgFs88+e9pvv/3SOuusk15++eVBH0MQjFQ4IZwA78OaQ+HpMO6aV5TWWGON7m8/DoNeaqmlsuAsuOCC+bvypO7BwDvabLPN0iGHHJKNe5VVVule0oUnfH/6059OBx98cNp///3Tmmuu2b2keeybSPHGhHJBMD0zTZKy9WHVcMDDmmWWWbL3s8QSS2RBq8eyzTffPC222GLZ6Euepwq4gieffHI6/vjjK/N6gmCkMmwhDy9gxRVXzKHG1VdfnfMhSy+9dPfSv8fEQY8++mi6//77c8gg3/LEE0+k119/vXuNgcEr2nTTTdMiiyyS3n777ewB3XzzzXmKEJ4Pkdlnn33yeo753nvvTddff30+bqHZHnvskV/CJp7GwgsvnEMw2+66665pxx13TBMnTkzPP/98Fqcddtgh7bLLLjmmfO211/K+eVpPPvlkFpjGMtdff/0sZJZrH2XYfu+9985hmu2XXXbZXFbkkYJG9FN9Wn/rDeuMGzfuY6F+FUyzkAfCHgbTlxdQDp6B95S0HQwOljg+9thj2RNZe+218/euPPl73nnnzSJW3+CEjNEfdNBBabnllssCRAQPOOCAbPC2XWCBBdLOO++chQZFUIRYjsFxbrnlllkY5plnnillCq3Ug8DZ/6GHHpqFQ5mbbLJJ3ueqq66aly+++OJZ8OwnCOphT/oVr9uA2RP64corr5z7WZm0b6gYdkEpBtyYx6iHiEjEuio033zzdX/bHESKqPAilL/uuutOES25GglgHlHBOq4wbb/99undd99NP//5z9Ovf/3rdMIJJ2Q19j1BcMVKopX35YTK/XiX+L3rrru6S+vCySxlErdjjjkmnXTSSencc8/Ngibs0j6rrbZaFqrbbrst7/O4445LDz/8cPbW4hJ60IhBy4DHrnjP9ejjLmzIWeqXVVyx7YthFxRuGQN9//33u7/5OAxfCGE94U9VEBUj/lNPPZUVm2AxXl4Hz+Wll17qXrPrRDhJDPuhhx5KN954Y/rb3/6WReKRRx5J888/f97umWeeyeJBAF3JUSaREjY1hmhFUFwGV75kLc/DfiwjKo5bXQiOTnDggQdm4brkkkvSOeecU2l7BKMftqKf6W/6JFHRv6CPGej0cUKi7w51/xl2QeEJuKfknnvu6f7m48hjPP3003mEdqm1KkrYY9+f+MQn0rbbbpvDC96IOtU3thMgPJEnkbdQJxBEoY/lhIMw3nHHHTlH5GQSKh7LTTfdlNevxzY8jOJ28tKENUSLiMgTaZ+//vWv6Ze//GX2poRSREcIZfSxPAgK+rSB9+677873bulL+qFBaPnll89iog/r30L6vvIsVTDsgsJ4KSg17Q2GJ0npnhE5iSohKAyWp8KjYNBuoLvhhhu61+hCwxMGIjPnnHNmtYeT47Nci+UERYJXwvRTn/pU9lR4MA888EBevx5lSsoShRdeeCGHMl7HHnts+ulPf5rOOuusLExcVPX8/e9/n372s5+lCy64IAvV7rvv/jGXNgiIiv7MA9Hv2I0wfvXVV58iJkLm4fBuh11QGAzVpJ69oRGIDmOXcKoSjSpEkS8pwkbdhS71lLt1GT5jlt8gcsIUdec93HnnnVlYXPFxwooA8oCMGo0IZ+xXaOWqDw/IvokScRP6yKHwSiRt1U+opZMQI0Km/YKgEaJisNIn9RfhM0/41ltvzSG7vjccDLugMGjGJ4/RG4znlVdeyS7aUNxZytivvfbabMhOgkvEJaQpEAqXcc8+++z8+Ygjjkjf+9738tUYJ+e8887LYRl4EwxfecRC2T1hH8Ianggv7Mgjj0w/+MEP0j/+4z+mLbbYIifXlKETECZXer7//e+nww47LNdHApg3FQQ9QVTYixCcx+314IMPDpuYYJrch3LllVdmF41r3xNER9jAQ3DPhqsbzdyHQqBeffXVdPvtt+eX5GoRLEbqO4asTtSdQRMGx8/7IH7yKMIeJ+tPf/pTFqHihZTy5UGUx0PxXVlmf8p0cgkYb4gYOR7tYp8XX3xxzrtYziuynHgQFvsnYO7fUe8g6AvetX7iNRxhDiEr96EM248DiYL7L7j0xIIh9XZjG9GRjGVwkkwM+fLLL8+hyrSAoApPhDxGAMLTLFMr03JtJHks5xJCEoxUDJoGQu/DLijeBwpPYFoKShAEvVMvKMOeQxFCXXXVVfnKSG9w04QjXHzJzyAIRgfDJijCGHkJoYwrG652uNTaCA+Jiy9xax05DCLU01WTIAhGFsMW8rgU7FKW+1D86tYlLfdUyCPUY/+y0jwTiVJJWesQluHMVgdB0D+mSQ4lCILpk2maQwmCYPqiraU1zTt27jTf2HlCUIIgaI6WzpY0pqMtjW1vC0EJgqA5Omv/JndMTpM6J4WgBEHQHLKukxJBmRyCEgRBs3Sm9pqYTE7tIShBEDQHD6Wj9q89BCUIguapeSg1QSErIShBEFRAS01WWkJQgiCojhCUIAiapCX/538hKEEQVEYIShAEzdPZkv2TEJQgCJqkJiUt41NLy0whKEEQNEtrGjN2rjR23CdCUIIgaI6WFoIyT01Q5g9BCYKgOVpa2tK4cXOl8ePDQwmCoEmkY8e0zZzGjpklBCUIgiZpaUnj2sal8bVXCEoQBE3BQ/HM6LFtY0JQgiBokpqHMqZ1TH4A/ZA/pLq2rzRhXErzzf1RuYOho7b5u++n9OqbzU+LGgRBdYxpnSUtONumtbBntqEVlLFjUlp5yY60+6Ydae7ZmxMU1Xr7/ZZ0470t6Y9Xt3V/O3rIwjo+pU/M0Zlef7t2LO+FMAbTBwRl4Tk3S+PGzDq0gjLnbJ3pyD3a026btKenXmpJz788SCOqbTbrhJRWWaoj3f9Ea/rS/xuT3nq3f2WNG1vbriZqqy3bkdp6OAyH++4HLemex1rTvHN2pAXnSenmB1rSI898tLLtFpm/M62/Skc+hqvu+HhBxHO5RTvTOit21MrpzB7V86+0pOvvaU1PPN9Sa+yUVq/VYeeNOtKVt7emS28ZXJsGwUhjbNssaZE5eShDLCjzzdWZ/uuIyWnZRTrTj38/Jj34VPeCQTDfXCl9Y//J2TA/93/Gpqde7J+gzDxTStuv1552rYnamJpjQxwIXXtHSm+83ZIF5bW3WtKfrm1LC83bmT6zYXv2gE668CMviJjtsXmtjI070nnXtKYTL/h7D4lorVETi/22aa8JUmd64x0Tm7Wk2SZ0pkeebUm/v7QtPVwTqK3XaU9H7dmeflf7/OvzR5+XFQQ9QVAWm2uzNLZ11qFPyrbW7P7DiSnd/WhLuq/mXQz2df+TLemVN7pEhDfQXyZOSum2h1rTCeePScedNyb94fK2NLm9Jb32Zkv+fPyfxqTfXdKW7n2cl9KSy/7UMh1p9lk+EtYJ4zvTp2ueR2trZ3ro6Y8L2SwzdaZt1u1Iy9SE86Ib29Ivzx2Tjv1jW7r81raaV9KZtq0t0w5BML3CEfHMtrZFF130u11ffZzJkyfneYVbJAAGwSy1kX2rdTrSHLOkdMF1bdkTGCyz1DyNLddm6CmdXyvr9X6WJfTgiTzxQu1VCz38rZyXXm9Jvzh7TP7u6Vo4JoSaNFnOpzMtvmDNs6h5FM/8rUtgVqp9J1Sx7umXjkkf1kSqHnXapea9WPe3fxmT7nykNYdGL77akhb8RFcy+d7HW9NiC9TCplU70zvvt6S1V+hIW9baZt2VOtOsM6f0eK1s3hIPynp7bdmedly/I222RkdaY3liltIztXra175bt6fVlulMjz3ngl1LWqtW1l5bOJ0pPVur85R1amKmXAmcdVeqeVC175yPjVfrSMst1pkT3G+8E0o3PTJhwoRUiz7Ssssum55++uk8q99Q0dY6Ls0+0+K1bjZ+lF42/sh5qBS5lNsebMsGvsZyXSdgpnEprblcZw5reDpv9TBnOyF6rmbIc82WaiLQnj0c4dVLr7Wk0y5uywI4ub1r3fG1cpZbtCOHYm/XymLoe9fEY4XFOnLi1tWwA7brEpOxtXWJ8Do1wThg2/acgxk7pjOtuHhH2mnDjrTEgl3e0xZr1gSlFpIRH8Ij7BLmrbxER02kWtLSC9fKrG3vmF6piQhx3nmj9rTHZu1ptpmHqDGDacbMM8+cdthhh/S1r30tHXHEEWmvvfbKl3SHlFo3MniPTkEZIj74MKVbH2ypeT9dnoockHBGMvi12ne33N9zc/E4zr+utSY4LWnTmlF/da/29P8dMDntVjPY92tlPvJMl/eDmtOXHq59PvnCthx+3V0LsxadrzOtsHhnFps1auK1wcqdtRCxNf36T23ptL+0pXP+2pa9FqHTpMkt6cGnWnO9llmkI81ZE7Hla9u+Xwsrl1qoMy1SK4uA8A7tx34Xnb8z57EktH9zUVs6tfa66b7WvL+ZxoeHMj3BM9lmm23S4YcfnpZZZpm0wAILpIMPPjjtuuuu+eazoYKYtNf+NyoFZajGVInaF15N6aGnW9PCNcOU/5AXYaQPPNnaFT70AKN1lej488akY89ry+GVy+VCjC/uOjl7FoVJNU/l8ee7yhJmvfpmqo0enWn2mlc0flxnWqnmfTjvN9YM/slaOS4x33hvaw5P1IWQyCfJDa1YE5IlauHZnLOmdNcjLfnS/Jo1L2SphTqycKkzz0j4xTNZcYnOdND2k2vvHfnq09lXtWUvKZg+ICZbbLFFFpM555wz/eIXv0i//vWv02yzzZY+97nPZVFp5p6yviAoQvbR6aEMlaLUeK8W9txQM2Dtvu7KXfkL4csdD7dmb6M3iIqE7XnXtKUTzm/L+Zmrbm9Na63QmXbaoCOHThkN3xDOStjan/zJbDVhIQKEBk7SBzXv473avnkU42vlyPk8/2pL9kyEMZZffWdrroPczJI1T+WF2nLJbGW50iRJLDFOJIU6QjPCM7G2TTD6mWmmmdKmm26avvjFL6Z55pknHXvssem3v/1tOuecc9IJJ5yQ5p577iwqO++885CICpOMkKcHjPz3Pd6SXn69Ja22TEfOnzz3Sku+N6UniAAv4cg9J6ddN25P7TUDfq7mEVx7d2vOnRCopWohyByzTl0FeUhv1jwGAjbPHF3fyasIX2arvd79oCun8s77tXCmJl4LzFMTvJqgPPO3LsFzKX2Fmhey0Ce6RESY5jK7JDNh+mNN7AiLy+KfnC+l3TbtyJ5YMLpx0URoQ0zmn3/+dNxxx6Wzzz47vfHGG+n111/PfxMVQnPAAQfkRG2l1LqQ/iXxG4LSAJV97e2WnMNwk5tw577HW9MLNVHpCQ3J6NdevjPtu017voI0cy0sIQCSpzOP77ovxZWeqfHBhy1ZGCa3d6ZNVq95Gp/szIneLdbqSPPM2Zkeeqolvf2ey/At6cFaWDamjah0pgdroY1L6jySeWphzywTXN7uOrWuPK2yZFdS1g1+yr/1wdaa0KVaqCSEyqsFo5yJEyemRx99NHsmRUzgci5ROeuss9IxxxyT1/nwwz5c7UFgSOqoGU5HxyidOdBs70PJ+zVju/n+1iwCDO+WmndCOHqCAAkvTr+0yxv5/Gcmp389ZHL6l4Mnp322as9Xev5U8wgkbqeG8ENYcvGNrTmJ+k/7Tk7/fODktN267fk+mQuvb8v1sJ5Er7DIPi0T9sijvPku0WnJ4lPKlJwV+uy5RXv6t0MnpyP3mJzmnKUze1G8qWB0QzReeeWVLBiEg4DUY/lrr72WhUZO5dlnn+1eUh1s0nSkw3Ifytyzp5yXcI/EYLB7IcCem3fd7Xr+tW35fpLB0N7Rkv5WM3IjtftMeoJIvPlOSw4hrq/V+/aHW7JX0BuMlWHm3EbtvaOzpSZGXbmYy2/t8ggY9vs143/sudZ0Z837kSQlDhKzDzxZq88jXV6G/div2/aJxfs1r+Wvd9bKuaUtPdgtErbzvX3d/EBruqsmQj77rZM2vqkmhiUh6/YD9+w8Xfvepe221trx18I5t/5fc2db/jsY/bTXYm1C8sEHtRGwF3gxr776auX3pLS2jEszj10sdba3Du2t95+ouenf/dzk/BsYBjxYQYE7V92QxegO+P64miF0LxhhaCqJ1Vo0kl6vhTp1zTkgJGrdqyIH0kw59cj3zDFrd66mVmYQVIEfB849YaOaUI0bWkHx61o5hS/vPjnfC9EMqvVKLSw8+6ox6VfntsXViSAYIRCUOcdvMPSCIlQxWq+1fEctZPmoXN/7sd8Ru/WsCi7PXnNXa7quFuMXVEtuQI5BziIIgpFBW+vMaY5x69dC/WF4wFJvLDB3Z/rOIZPzlYx67F5cf/z5ben6OkEJgmBkQlBmH/vp1N7ZNu0ERW7A/RnzNzzJze7db9F1iTQ8kSAY6bS1zJxmHbNWTVBapp2gBEEwfdDWMiHN3LpmTVBG6W95giAYOXBBOlo6aoIyMQQlCILm6ehsTx3tIShBEDSN34pNTB0dH4SgBEHQPB0dE2u6Eh5KEARN4kJOZ01QiEoIShAETSOHQlRCUIIgaJLOmqJMCkEJgqAaOlPNQ6l5KSEoQRA0iYcrTawJyqQQlCAImsPN9fkqT81LCUEJgqBJaooiKRuCEgRB87j5vj21d0wOQQmCoHkkZOlKCEoQBE0iKdv1nNoQlCAImqazc3Ltf5FDCYKgSbqeodT1CkEJgqACaiFP5FCCIGgek3x1ps6W1hCUvhg7dmxaeuml81yw48aV2c6rQXnKNSdtEIx6RDw1pvtnyqr7wgsvnLbaaqv02GOPpauuuip/P8sss6Qtt9wyzTbbbOnqq69OTz/9dDbylVZaKa211lrpoYceSvfee2/6yle+ksaPH5+ncHziiSfytlUw77zzpq9+9avprrvuSmeccUb3t9MOs/d/+tOfTqusskpqa2vr/vYj9AuzSN5///257vPNN1+69dZb0x133NG9RpcAL7/88rmc5557Ll100UXdSz7COsstt1zadNNN09xzz53eeeedXI5z0BdjxoxJSy65ZFp33XXToosumuv45ptv5va77rrr8qx4o4XZZ5897bHHHrkttJG+N5rp7OhMH749OUc9QzoV6UhAx1tsscXSkUcemWadddZ0+eWX5+PhGXzta19L66yzTp7rlYAQmV122SW/XnrppSxABx10UBakG264Ib344ovdpQ4MHWjffffN+1LuW2+9lY3p85//fJ7U+vrrr+9ec9ox88wzpy222CJtv/322eC91l577bTiiitmA+apLbjggnmO3CWWWCK30aRJk3K7FIjzXnvtlXbbbbd8XPXLoN0J0Ze+9KW09dZb53YhQDy1559/PotQTziHSy21VDrssMPydgTNy7af+tSnstjdd999+RgMEjvttFP+rrfypjVzzjlnOuSQQ/IxEdO//e1v3UtGKTUfpGNiR2qpCct0H/KY85UB62BOIHHhiaywwgrZMOaff/7cMeF763hn+FWhozOE7bbbLn3iE5/I36kPwe5rLtrh5P33309//etf09FHH51++tOfplNPPTXXz1y4Pv/sZz/LXtqNN96Ybrnlluwx8GaITGHChAnZuyMADz/8cPe3H2FEXmaZZdKaa66ZRdzk3rfddltuf9v1hnI33njjtMEGG6RHH300/fjHP07/+7//m04++eQpoz3PkidJBHfdddcp53Qkoj+q+/HHHz8kE5dPC1q6Y54x+f/TMQz37bffzqOVzqzjGT1XW2213MEtM/rONddc+TNvxHIdF0ZVI69OquPi5ZdfTpdddlkOiRiW7Y3un/zkJ/P6ROKee+7J69jPZz7zmbwOQ/vc5z6XLrjggnTnnXfm5Vx2BrPJJptkD8bfRNA+eFP20RO8qW233TatvPLKOVxh/DrnJZdckkOz4nEYwc3Mz/Ad37vvvptuvvnmdOmll3aX1AVvQzjjBe3AO7Ntfeji+JTx5JNPpsUXXzytscYa6cILL8zGvOqqq6aFFlooe3Y33XRT9xYfIfxUb/XQRlx95TleoU9vlPPi/cEHH8zCB+dMu6oHL4fXVAvhs2jvsMMOuWzhpHZYffXVs7ftXGqfU045JW9vPf3CeSSqzstf/vKXHEJpw8033zwfY0/nZY455kif/exn0zzzzJPX53Xqb0T4kUceyd6ddWxXf27KgOb98ccfzzeFKUd91NEgh/p+Vjxt9S15N33X+kWgpiXkpLP2b4ZIyjKWZ555JncK7rvOrxM5EU48IyA0vBOd4oUXXkhPPfVU3landKKtr7Po2Nx6bjVKOMPN11l1JqPtgQcemEdU2xSRYfQ6LcT/55xzTnbViQ4XeL311svLufPK08l6Strq6LydQw89NHd2ZVtv7733zi8d3DGqhzLUVbinAxMh9WWAg8HxMH5CqB7qDn/Lb9gHo+zJjXceGJCXkEp+Sv0JXF85lHL+7Ns+dt5553y86nHmmWemY489Nj3wwAN5OQMr7azdG9uhiL72MEDsv//+2VAZJ+9Gm8rvEOmNNtoonxdipK+UgWXPPffMfUJ/kpvTH3hrzgNx077CWWJPaHhLvhOOwXb+3mabbfK5KuXss88+uQ/01M/s2zE4v/ahTdRrv/32y4PRtKdLUmYIQXFS5Uh0NKLh5YQZZam/zsUwdAoGYRQxChd0JqO0jmskMOJYV6c2ujCe888/P4cLv/3tb7OBECkdieGdfvrpeZ0y2hu9dT55gw8//DAbt4Sj0fe4447LoQWj1KkJViM6l45m+e9+97u8zYknnpiF0IhaHz44dmX96le/ymEMr8CoboQcLNqGABBFQqzu6mRE5t0JY3pCu2kH7cuQGCxP0PE6F71BHOzvz3/+c27XL3/5y+k73/lOOuKII/I54A0qh0ATluKF8ZwK2lu49vOf/zx7CgYI+SICJPQ66aST0rnnnpvFXBsSHfWVdObNqONpp52Wyy7nvqAd1M15UA5jd97+9Kc/pRNOOCGXy7viwfVFb/1MX9VneV/6kH5mX7/5zW9ynx5JzBCCwmh5AkYhnb+4sAxNUkwHYBi8FydRhy8QDB2G8BgleTSMlOsuwahDSj5aj1ch+avj6EBeJdxSrheD8yqUUZtnQ4AOPvjg3Il0fh2mMZejTJ1LXXlRjIOQCFUcDxe73vtgSEIQ9SZg9m3Utt5g0YkJACPW2Y2qjtnoTxR7C9N4MUZm60pwEwpi7iUs+cY3vpHWX3/97rU/opwTRvajH/0oi4sQjofBy9l9991zOKWtnJviqdR7SdrBoHL33Xen119/PQsKcTKA8CR5B7wm7UtU9BnHIRfkvEgk80wkVK1DzOG8O8fa1zE5fvvmPWkf557AOlZ9pjf66mfqWcJy51IOy7l0vu1rJDFDCIoOKR5leESAwTrBRjaGYRmhkaQ1SjSOljqoVz06sLi2GAmXVYcUi+u8Okh/ICg6hpGTKLjkquMqT6dXz3qUr8N7V1fGgSJWRtbS2QuNdbeOujeDjswL0A5yP+qtTo6l1Kke++SVyHMQEOIgV+EYiSj3X37AsfVEETFeB2+BsJQ8iPaa2uiP0g7qzKMiDNAfbM/rYLAlz2GQUSfHV4TE+Wqkp/5R0A94Nd61QV/0VI66qos2c86I10jzSuqZIQQF1F5HofjU3mhitGIYxQU3EhhRjA79wYkWOnCRnWius05uRGLg/UEZQgXGKFnrisrvf//7PNqLlxtzHY6DZ+Kdl6He0Nn8reP2leCsCqJJULjgcgWSv9ru2muv7V7j71E/yVKeBU/ivPPOS2eddVZuKyGa/IXvhYiNOM7DDz88HXXUUTl/4NzxComLc6etiHl/0UbE2DEYZIQPXkIN7a9ePFi5FILHIxIyCi95ksONvuRyfQmlRjIzjKA4GTqfEaC4joxBp+Kp+J7YMNb6kKQvjB5GLtvZXln+1gmNZpbXI9QwMtZTkoauqBAnBqU+PBOGpPx6dC7urtGaRyUPwFAl6JSj7vIIQ416MGxeFa+PUduvNu4JRkx0ufXWl7NizDwabUdoeIo9Xa4ntoRVWCIxaUAoHoSytJVzCfuxvvPQG8IZ9bYv+zX6G1yUwxshTgSQ8TqPPALLhJo8KJ5G47kdSgweQintY/BxCwJvarPNNmsqdK2S4ljNMILC2MWnOrXOUS6P6lyMWId04ghNfyFS1leWzvatb30r/cM//MOU0ZJwwXqSoTyIAw44IHeIgnoxKp1WDuZ73/teHol1FHmUnu7nMLoaRdVZlv+73/1ujvGJlaReT6P8UKAdJZh5eV633357r+44Q2fAvAoG7y7hf/u3f8uhjvYhksJOuZRGnLOzzz47H5fl3/72t9MPf/jD9MUvfjEbvdBJ8tT5K5dhtbFQqieIIeHThoRB3usHP/hB+sd//MdcPu/EsclVOC6X/SWBiRmhEea6GjhcqK/LzjxYA5A+9q//+q/Zgy1h27SnS1Gm+ztlC0ZBHdOJcas2d11o4HsxLnedG60TMVjomBJ7Ercl2ebkGlkZuxHZckm0coOSRByj5vrr5JbZxnpyC+ogQcyAYJmRh2fkpbMyPFcIrrjiih5vyy514KXwEuRMJBxt4x4N+3Jc9sfbUQ+uuuPxzvC9+nLf7UPZ2km9ekJ5XHFGfM011+R1tWVv6E/aSb3VTb0JJpG58sorcxsrz7HZf6G0HxHwIhwMiVehrbWT9izHp96EWtsT+8Z2gLpYrn0tZ6jO58UXX5xFkielHMfumAiMtnUPiuO0rrr21T/qv6tvy8Z+pR9OrRx9Utupr7qok2Piuam/EHKaUdOS9g+7ntg23f+WZzgguDqk0EPn6Clk0oa8DuvxLHoayY3cXHjLdLCp0Z/9jkTUW5ghnCOwpd6+JzI8lp7aB6UdhTSM3vb1lDbhQVjWuLyRUhdl9lQej4SnScAIf2/1GmrUUYJYXUruTyJcqCzHwzueVuTf8rz1YW2EqbVnCEoQjHyEdkI4osJz4aUIEQ1OEsY8xGlFCEoQjDJ4r+7odYlbApxHJXwSbsrBCfGmFSEoQTBKEaLJs3nJnUyrEKyerscX1ASlPR4BGQSjCgO+hOy0zOf0RQhKEASVEYISBEHzdGdKQlCCIKiMEJQgCJqn+97XEJQgCCojBCUIgsoIQQmCoHny/WtxH0oQBBUSghIEQWWEoARBUAFm5om5jYMgqIIWOZSOEJQgCKoikrJBEFQCKWkLQQmCoFlaUkvL+NprbAhKEATNUZOT1NY6LrW1jQ9BCYYeU16Yfc8jC4PpkJbW1Dpm9tTaNvv0/8Q2j84zf43pGjxwuBHH64G/nnY/VNNPlAnBTHnpgdIejOOJ654DWmYp9HBmDx32iL/6epZpPjyR37GYrsOcwB4DqBxPQfc0duXVU79ub3PUeBi0J6k7fuuaZsSMAAX1MNWo+V88BPvSSy/ND3Kux34IhUnMTY9qG+uos7I8od5cNt/85jfzQ4H+7//9v91bBtMNnWNTmrxg6myveSrT+zQaOnyZM9h8OV5mqTNhEgMwaZTJnhiWqSiqhpiY1Oqwww7Lk10zbs8GJR6ezO6ZoAzQU81NqWmeXrPjMXAThi2yyCL5QcSedO6J+ObfIY6eKareJvdSprp7cHHBU9qJmDKJlOkWzO5nXmfHrXz7Iahe++67b56PxvQfZQoLjxncdttt04EHHpjXMdUFESoQD+U4NvPgEA4v7W1ftjFliOM0h46n0U/T6R6CoaFlbE0jPplS64TpX1B0aqO8kdx8K6YZXXPNNfOcKmax9x3vxDwrjaNvFZh8ywRRxMScLqaztC/CZuY788wQA4JCKEyHyujMVaNu5nLhOTgPPIW99torr2/aTMZKKIhjmZO3HsfNczHfi3UJiakrzj///PxSvrlqzANk2k2Gz7MoU3gQLULDw1N369dDyDyFfeedd87z35hzmFdCJHksxNr36mFOY3PLhKBMj4xNbS0L13RiBhEU7roJuLwICSMw8dL//M//5O8Yos7OoMzo72Wy8o033ji7/CYBM/ozMJ6OUXu99dbL5TBywmA+F55EI0Z901sSqz/84Q/ZuE02RQSM7sTFU8sJimlFeTS/+c1v0lVXXZXrxjitb7kZ7AgRsWGYQggCxOvgYSm74LjVybEph2jwzMxeeOaZZ+bZ9oiQduB18GZ4Fj6rT/HstIVyfvvb3+Zl9RAUnon1TLZ1xhlnZAEz6RZvShin/tp81113zcfGq9ppp52ygBFDy8zLw6PSjqYbdZwmoOfFlTLsy3ZewijHQ+gOOeSQ3I48uLKO7R0TYVTm/vvvn783K2B9mUE1uLrT1rZoam2dKZKyBQbLeEycxGiJkBHW1KFGV8ZAHAgNL0EYY+TVqXkgpoUsU4/W44HC5557bh69eUfEWTkMm1iXGQTlqdRBGQzgP/7jP3LegWCBgRM8Is+YIDRhjGXbwUIsiRERWnXVVfOxMjpCpT68m54mkGe0BMR2PBKeijl3tR3R4kURTKijZconCESI90M4hE7CL+JAeOzTtBDyP4ceemj27qwj/HMu1l9//Rw+2acyTOFKnIRoBI5waA/eoalaCYzP6mlie+dYqBhUhas8Y2rnOC4bZxirfAUPgQD8/Oc/zwJwwgknZNHwvRG8wNswz6wZ+63Hg+CxGA0bYTwM0rSRytbpdWqjqnDDC4SGkYAnJDxhPJ/73Ody2VBPRqFOVaI89eCJMUw5F4LC+ImGZereCCEya92f//zn7Cl9+ctfznMAH3HEEVk8HHMRP/XmUWnTk046KV122WV5HyuvvHJ+d4w8OZ6G9j/xxBOzF0ZEdtxxxyyet912W66rHBRRJurahADxvnhFktVEWjnWkcvhYZ1++um5TIllYqV+QYW0EJRxISgwIvNKdDL5CfPJcpflE4zM888/fx5RYV5a4ZH5Zs3gpuOan9doqKP3BTEhTjwh28qnlHwFkfrlL3+ZPZOf/exn6ZhjjslXbwhd/eTqQ0GZe1e+g+fEM7BfHpqrUPVXfuqxnZDq5JNPTj/60Y+yuAhpHN9XvvKVnGDWttBuBMXVKsdsf7bnORBSYswL4SnxaoiCJLC5Z4ivc1Dmcia21ucdyo0RGeKivsRYKCf8JOaW8+x4PnJU2v20006bIuRBFbTUxKQttRKV7m9maErIoEMLIYQVYATcd8uJQcFo6wXrlNG7GE9PGIXlZOQIGAAjJEYF4c8ll1ySPR9G5SVUMpoa/WGfPJm+9jNYHAMB43WsvvrqOddg+ksJYZ5Lb2grhi6vw1sjLKecckr2Glxh4uUUtFVp24K29ZL/sExOBdYlsuqj7QiFOhJvV5K0pX2on/yRAYE3ogzCCMLPG1I3IlRyMJLyQ9GGMypdGdaalLgfJf89g1M6L/feVZDS2QiMz0ZSy3uiiBFjJwo9oTz5CPE+F13S1T0oxbhKPuDrX/96ztGAcEhUwj7UwWitTrwI+JtR2XezU1E6dl6X6S2N9OojVHCVqTcY+eGHH56OOuqonAPhPfBAGDDPRfjB0KeG9rcvx8ObgL/ds6NtCYmyCbHwURsKj7SfMIio2E6oJvwkxtYhIrxOn3/yk59kcVGWnEoJI4PmKXeu6bMhKDVKR+UOi+nlOBiLG9GEOtxvVz7AuEvnFeZI7llHRzZ6NkJMjPiuDnHb3edBnORkuOnl7lH7Ew4Z1ZVHKNRDHsAIzH1n8MRDvoDRc/l5AIyk2asWyuWNCQV4C0IeZZbj7glGK+fC65KYVifHKxyRz+Bd9HTlqxFiaL+ERQKWpyF02m677XI7aFfhkvNEPHgewkvn5frrr8+X/YmL74Q4PCqCJP8iWU6k1UNIphxtaqAIqqMzddT6UPv0f9m4EW584z0RxbvQoRkol5ixM2jfnXXWWbnjlhyIUY+XQExcUSAGRmWJRiN9PUSHwbnEzBPhviufWPECjMJEhrEwIvtVB8uUL5wQQjASdbRv3g7hc7WDEfF2/vjHP2Zh6Q11d6mWqDEseYZGeEHqwagJg2PqLX8C6wsRyw12RFadXLlhsEK4iy66KBt3fZvzvORF7IcQn3POOXmZbRyb4xdyEU6XvHl0jt95gnVcznccF198ce6nJSkr6UpgoN8SPGUROe/ajffkEn5JGAfNkX8U2LZI6ugcP+NNlm70ZVhGYzmDgs5nNGTsOiHDNQJKELpaoeP7zhUIYsLYGCmjMopbp/H2dxAQxma0bIRYceXVg5HxVnR43gHxMTIz/Ntvvz0bjXV4AQxOHe3biM1z6ck7qqcIGe+KN8Dr6QnHxNCtL8dTfhrQG4SHRyW0EWJoQ+1mO16fEKqxzYv3wBMhSL7j7RBH3zk2xy9B7rjUw/HD90RXOGW5fIm6Ehm5Fe1RxLK0F6HTtuphmW1KmwbN09Iyc+38rV9z32eb8QRlahAWcTuvQ2giti8QFFdguMzf//73s4AQhXKlpgoYG6NkDNzznjq9dRhP1ftuBn1EmzHaxnYbCP05/oFSyiQ8Qp9m801BIxNqbbx2zXhmjxxKIwSVMRjB+zIKHZ13UbVB8zp0evmc3ozJOkOx72YgbpLGU2u3qdGf4x8opUx1CzEZCjpq5/+D1Nnx/oyXQ2mG4hG4aiDM6O2qThDMWLTVjGPWmqB0RsgTBEFzdHaOSZ2TFq39NSFCniAImqUW8rS/kTrbXwtBCYKgSWpRTUf7+2ny5HdCUIIgaJbO2n8f1F7vhaAEQdAsNQ+l44OalxKCEgRBBXR0tqf2zkkhKEEQVED3nSUhKEEQNIkcSpemhKAEQVAZIShBEDRPixtiY7L0IAgqJAQlCIIK6PrJTghKEARN0SUlnflfCEoQBM3TpSohKEEQVEcIShAEFREhTxAEFRKCEgRBBcR9KMFUKE+iX3HFFfN0INMb5an4nrLv6f3B4Om6xjODPAKyzEljKgUPKja5t4mz6mEwZpTzbk5jM+ANJ6WOptAoOBfqaeoH8y038/DnweAp9gcddFBut1NPPTVPPdEsRMqcPOZP9oT8njC3kfPkmb3WNTVG/fxAnmJvXp7NNtssT81hLp7GmR31WXMQmbLUhGim31CeqT3MY6QtTSliDmbLTKNqvp5g4HjW8vtvvZ3fZ4iHVJvc64ADDki77bZbng/GBOieql7QoUxQpXOZu8b8un1NwTlQTGB16KGH5pHQ/D09Ueq4884752k9GTFx4R2Yh8bUHmbyMxvfcEFcTXhu/x7M3dPkYAOFV2DWRDMkmi9Hm5iLx7w65vUhII6fmHqZvtW0JSZD8/R6EN9tt902HXjggXkdk6rXT7Cmv5pm5JBDDsnn3NzQ5lLijdiP7R2L804wiZMBxEwCwcBxDiZ/ODG/zxAhjw5mNDQ3i9HKRFb1WGaWQO69UVkHrhLlm6TbiNob6qijMzhi9tOf/jTPAWRSdey666555rvRjkHK5F08Asd4wgknZHHXGc006Ltf/OIX6fzzz8+eIg/NrH+Ep+D8mCmQyBKGxtkHCIWBYZtttsnTZ/z4xz9O//u//5v3SXjMYmj7oDpKXDOm+326R4c1J4tXmTtXR+Y++1unNZUnt63AyImQaUR5C9x1HZKHY4pNswnanhAZMY2EtrEPnoiRk8tNSMx0R6y+/e1vp6uuuipPbdoTDIjBKR+2MXIbaUs4RKDszyyDJq9ipEIEBsltt425hk1zqr48JMdl6k3TpZoN0Trm/ZU7+NOf/pTnBHasRmyz+RUhq0cYoa0YKmF27I3toQyegXpZ337rj5eXYWZBL6ijNjKJGgFxDAVehbqa2JwACH2cAx6MtihTmjRiHeeCh8Wru+KKK/L3vEDnoYgRnC/rEew99tgjf2eCMe1kf1PrA/qMAUqZBoLLL788t+1+++2X+9y5556b27OsY5pUMyWabdGcy44fQjfLhG+jmRkmKevkGsmMaASgjFA6vr+5yObRLW41dDqdjJGZatNJ5zYLTYxyjNE6woK99tprygTh5iU2OTpDAcPSCRk+IxwojFIZOjMvxiTiQijuO/FijMTBixEawXVWdRKumK+YABAZ6zAQ65iDmDjYBoSK4WyyySb5cyOOlbCZq5lhMjztoj2UheKN2Y921b6DRVsSDOfO9KvaW3mO2zHIhzDsRrQzwXK+DR7q6/h9lj/jAZWQtggGsbAf4Y92cwyYWh/gDcnFaDderjpqc/u0nbBOW+sL5sUmIASM4MjZKd9+bWsfpq0dzcwwgqLjOHE6GsNk9E4+AzUCMkxz3haso5PpBEYhcxpzmbnoDNT3cgE6uA6kfCPWSSedlCcul4fRUSUAf/e73+WkoalLjfy95VEg5NFx5RgYpRyCidVNJs54dEad3X6Ve9xxx6UTTzwxe1s6ZX2HtM8LLrggr6PuPAjHyhsbLAzK6P3LX/4ynXbaaXn0N/Iz3AIB1M5HH310bo++jrcvtLN5mE2ULuRhnI6buBBoy3qaIJ6XZ75pE7Mz5sMPPzz98z//c/ra176WPQNzIvPoCtrWuTv22GPz+TGo2BdxmVofKEljsybyJAmXc0BY1VUOTD/jVVmHCKqT9pIYPv300/P545mUwWE0M0NdNmb0TqIJvIULTjwxMOLwXOpn49cJGLYTrAO6ysLF5pYzbFcQdE4d28TgRiqjvRFcZ9NRrr766tyJGAQj09GJSm9Xa9SPwEkQf/7zn89eiPKMuH/4wx/SbbfdljuwjusYhAeEhBAyIK52yTXYH0Mxw6F1TDgulCJIPLTBYISXvOTC80iOOuqoXFfH7lWwb20l5BOCDfbqFMOWKHV8vChXhhi486XN66/81GP/zqVz8KMf/Sh7JQx8xx13TF/60peyd1G8MusSXqLg3Di3zpP1CcrU+oD6+E59eKiEwjlw3n1PvCXYLbOOEEz5QkyejVBLv3GOCDSRHM3MUIJSwh4jJtdTHoJ7zxsRvxKHghCDOypEYUCMGjqgUdpyxs9YGLuXkUeZXGGegJF7IKgfMXJ51kjodcwxx+SE4jnnnJO9HqGZ+hILnRYMTx0JklGxoDwvqHcZzYnlYHB8jFrIRZCVo771YWLB/kqbNYM6yzkIf1ZfffWcmNauBIBQ94Y68ZKILi9JG/7qV7/K9SLSzk+hvp0Kzq/j608f0AZyPf4WjhEi4k2EeCY8TGURd8fj3KnThRdemAcHHqeXRPJgz81IYYYSFBAUHZQQrLPOOtl9Ngo23nei0xi5iIykZjnROpfPOqxOZZTSKXQeVyiOP/747D0YdbbYYou8zUDg9hoBzzzzzPyS1DMSy1cY2ZTtnTdSRll18nfp6D1RBJLhaIPBYHvHRdAcJ1ddSMeghgrtzxAdN89EqOrc9XVZXz3li775zW9mj8GVHt7dX/7yl+ztCEWVNTWc46n1AcuJ3U033ZTPC4+XqNuf8+hvnnARHW2nv/B65Id+8pOfZHEhNHIq9UI3GpnhBEXn4HbqWK4EEAThAHe3Hh1AvMsVNRrLTzBio41Qx+jHPdXJjHjuH2Gscgric9/rdCijn46uMw2WMupyncXqJcln5NZpjaI6LQgIl1ouQJhjuXrLoxg9i/g4Ji65urqxri+vSpmW84TUxbuQwMjs76FA26mnthaGCDGcPyFebzB4XoKkqOQnI3c+bOucM3ze3tSw3tT6gHrwXJxz69kvD4RYEBTnhHgJwXjG6uZeKPkxiXNiJzQ2YPAAS58ZrcxwggKjgRuljCxOvkuaje45g2G4Z599dv58xBFHpO9973s5r6GjSfhZrmO6OiRB+41vfCP927/9WzZMMbKOAiLGPef+fvWrX815h8GivmeddVbuiIzlu9/9bs4LEA2JRZ24UPIG3//+99MXvvCF/FlClaA4dl4ZkZBTUI5OTmh6wzbCMSLmOP7pn/4pCxUYgpF/KOBR8YSIofoRlxLu9YT1hTq2IbY8lR/+8Ic55yN/5LyUc9MX+sTU+oDzDJ/1A/WTN5JjISLamlciR+ecKZO3RYCEb24j8OJJGQz0y9HMDHGnrJOsMzIGL8kyJ1cH0Ol8x1i40k6q0UVncPyEQAcw0hjldGb3bRAhwmQdnUrHU4bOY3vrcHt1NOKkPGLARWb06lNPYx0blxeUZSS0P6Eal1q4ZX9COcfGE5LncN4kRstxMAzrOHbl2N6x+ZsX4B4K94xw331f6uSYja7EkyfHYCxTj4svvjgbp2O2jZBNuUISn6dG4z60USPW0W72rd29nI/esL668mS8lGn0Z+REl6gycOtpL3UXVunrpX0lYH1n26n1gbJPZfF29Sl9orSx8y1stbx4XMorbeylDSWPbe/zaMIxTfpwoj9mjN/yNAvDZKTcXR27p6sW2shyXkBP63B1jeDW07GaRZ1cWeEt6KD1BiY+d5ctI+KdMMTS4RtRL4ne3pb3BNF01YJYEqeRTDl3PCjnpC8h6ov+9IGBUvqEQUE7EuPRiL7z3ltvp87aewjKdEi9oAjBjKhBMFTUC8oMEfLMaBRvo96VD4KhghMSIU8QBJVQ76GEUgRBUBkhKEEQVEYIShAElRGCEgRBZYSgBEFQGSEoQRBURghKEARN09lSe9XeQ1CCIKiMEJQgCCojBCUIgubpvsE+BCUIgsoIQQmCoHm6fz8cghIEQWWEoARBUBkhKEEQNE8kZYMgqJoQlKBSPMTZFBOm5hjJeJ6r+ZnN7FfmNwqaZ4Z4Ypt5Y0xtYV6WguP0RHNPGfeU+dGMh0abotSsfh6S3ROm8jB1g8dBlvl466fyZGDmlNlss83yQ6/NtethzPXYD6Ew2Zb5hWxjnfJUdw+t9sBr01aYZ+b//t//273lyMMDp01yb0L3888/P08CVgUel+qB2NrRlKQeQO3h056yb4oMT9Sf3vDEtnfzE9vaZ4xnypqcytwzJuMyNw6jcLLLPLSMoj9TPoxUTLBuXiATrJvYqxybaTEZPgFx3ETUywTsHmCtg5vqAUTXNKoHHnhgXsf0G0SoQDyUc9hhh6Wtt946C4cXb8S+bGNSLJOLffGLX8xP5DdvzUiF8JpqpDag5uk1+po4rL+wE7MQHHTQQflcmIzNU/K1m/mLLDMDwWCfvD9Sce7LM2VniJDHiWYwDM98MaYMNWewOWq4vDrWaIbwm1DKXMiO7YQTTsgjoRNtwivf/eIXv8gjMW+CJ+G4CU+BwBitjdxG08YHW1u+8cYb51nzzGf04x//OM8XfPLJJ2fBNkufMmdktBHPxJSi5gUyUbt2MqeyWQZN48pTnp4Z0/0+Q8CQGJ7JnsT6Zp8zHaQ5ZmA0MSeukdfITYBM+GS0NhKbitK6BEpYYIJ1oYHtzOLHgM1FbAQy8jFQAmYCrfp1/vjHP+Z1TNRufmUd0f6ECdYVjtiHOVt22GGHHKoJN0wkZiTlnjuWgm11WC8YCRm/6TQICFEpyBeYzMwcuupnX8rmwdhPeVp+I9pCSOTdk/SJMco8wbbXbry9MlJ//etfz+/qJ9xSD5OE9XRsvKEyEZcQgfEpV9sLSc34ZxJ69TvttNOyh2Ed21vHVCHOkfNpn6g/R73heExV+oMf/CB7YWUbx8fb443xKuzTukTTfgn273//+787DwYtYSfvzGRiZb/Or2NW//qQ1N+8QtOc2kZZJm3TTuqhb+gj5uzR74RPpsgVpptoXbuZP9vsiAYAs0dq31NOOaXffadqZqikrFyQhi5zAZdZ8XV2OPE60D777JMN0gkqxnbIIYekXXfdNW+vw+s4pqQkHDqD8MIcx0KP4k4LLXRwZTixQi77ZmA6sTIZtpPNGG1P0AgBT8Gov//++2djMrEUAbDPZkY5+yIYhM1E8Y5fR1V/xyZsYdiNMHiGZTs5FMeinjq+Sd2PPfbYv5tX2TLl67wMXVtsueWWeXk5NqGBuZGVQTyEpYzOeTD/r79N26p97VMZ2ohnxXidKwalPOeKYPMOfFZPA4B9lOlSe8K+nBvbaAvnTdhHTOQG9IOyT+3kfOkHwhjL6yE4Cy64YM7NGbgKRMAsg7zEIjLqb18HH3xwFhQzEGoL9fW9srTbXnvtlXM9+kepj3Zac801c7s4Nn1mp512yklmwjVUfac/zDCCUhpaJ5Q0NHpScCOeqSMLOiJ31bSdjMQIrxMZLYwMP//5z9OJJ56Y8wM6vbmDbaMD6SQ6J2Pyznjla1ZcccU8slkunNB5dFDLjPbHHXdcDleMIDotL8L2JkM38gjPzNDP+9GxGMpg0bmN5qbXVAeGY5+Mn2hYVqbXrMexlOkyTTj+5S9/OX3nO9/J8/06XtOImm4V2oO3JfRSb6O1fTCcIq6OzX60p2O3rrr5noCbxtVnBsHoCbBtiR7jMGIzIF6Z82IduRzGc/rpp+dzxHiJv/r1BsFzzNrYNgxf/QiY6USJpAn1fWbABgxl8pqEmvUQUn1Mmc5bEUKC4JzJqTh/IID6jnbh6Rx//PG5rQiJdUud7UOI+ctf/jKdeuqpeZJ/nqLzVlAfnrS25N0MVd/pDzOMoOjkDMbJMS8tw+BeMnIjgdEJRgFuuw5jXYZEDLjDRnYdTCfmZguZjFRcbCO78pWl08krWFeSkiBZT+ewT+uZc9ecvtY3SukgOsVvfvObLGg6BcNVL54Ur8kIpsOVTjkYeEfm29UxCRdPy754COZLrr/yU4/tuNNyJnIDxMVobCT8yle+ko2mvg0JisnYCbb92b54AY6DwWgLx2wdws0zYrylLraTVNb+jJGBExniYh1hZJmEnBFbrr15ECUsEar0NXMiY1SGfdsnUVd/RmsZYTMY2Sehcx7tR717Qj8p6Fs8qM9//vP5dfjhh2cRcQ4dj5e/Ca3zSyh9dl5KGK7PaHfnS5vqG/ahLQvqqS0Jqz45VH2nP8xQIQ9x0EGMYDoa49B5nPT6BCXx8YJRRwjjxDqZKKKjPCOMjuOEMgAnU/ig47uKYjthjpHWchORExQd14iio5iF31UB4ZHtbWsE0wFAbHgQjFDn18GagWcgR6D+6mb/BFA+hefSG46F0YnfeRWEpcTr6q+OBW1k/Xq0ZRnFGYU8UlnH+kIfy3kb6sjrYwDcfPtQP+Ep4+CN2Fb7QZhhJFY3IiQE8BIaFKHrjXKuvRvViZ9tiidiACH8vA3tZJ/FG6vHMRTPRJ/RvldccUVuI4ORgYdgOnaCYR/2SagIlnPv+By3bQulfiBu2qheuFDfX4ey70yNGUpQ6jGi8UB0YiOdE90TOgk32gk0+sHfOgfD0PF1OGLD61COzi7fYLTXQXSUckKNmjqSMIgLf8EFF+SrMNxeLvzee++dR18GokNbX0jkJQSz7llnnZXrMVgImlDLpXL7YiiOUQK5N7SREfaoo47KBkAceSAMWCdVd4Y+NYoYq4P7NYqxa1OfGbPlRJXXp42Em8TDYEBUnAeGwsNjqNYhItrY55/85CdZXJwbORUeYl8wUjBGgsEY9Y/izalHETbf86Z6wjE579qqhEbaSLihbR1TWY+XQzR4FGecccaU82tOaqFNSbAPFO07lH2nL0jaDJuUNSrrbATAaMPYe8KJ4TI7URKwxIKrL3GmLKMJV1Rn4aUwDJ3P30b7EvYYdUuysyTTJOB0PB1UDkIH0xmtW0ZB+yJc3FnLGVd/DLcvjGaE1HEZSQkeMeQ19Qaj5cVxnyUBCRExEI4YbdVN6DE1ilDo7Fx9Mb1j5przAhiSeliPeDAO3p3v5TdcgSEuvmOU2liby2cRY16eegjJnBdtSah6g3fpnKqLnJZ+oX1Kf3BchIy4aCeC4XNP8E7k4wiGkMvLvp3DElZbpizHo/7CGy8CT1x4E8RSXx0M2m0o+07vdHlIM8SNbTqNjuukOnncYB2YURuZJWCNJNYrGXY5EqOTk69T6xhCGSdcpxPv8nDkPHRqguNlFPPu0jBR0XaEyGhpPzwWHZYROMHK1JldHmSYjEZ+R17BevannlxiV0kcg3IZW284Dtl8YsmwehJLx6XzqZuOztPoLX8C6wtRdFL10eldgVEnbSMZ6JKv43J1RptJXGtLeQf74VEYrfUpbeTYnAvH5vz4zgiqDewP2kc+w3FcfPHFuU+WpKykK4GBdiZ4zg2R865deU9/+MMfPhaiEBqemXWErUTF8WhfYc5vf/vbfLzqRATU00BRfzm4EXV2jLbRPvXHZhAjGO4Fcu6sw8jV2fFYv6ynPxlg1EUZBEKbqDNviyhYrp6OQfv6mxDrM/raYPvOYLCvSbW+5H2GuPVeh9GwRrF6dBSjmAbWERiiTsUojEJlxDU6GxF1Oh2Ah+HE8E6ov04O20tylu2JgniWeFlH59dJoU6MxahY8ibqYaRSLgPhAal3CZmM6rwc++wphi8oW0fkGfFCymXxRtSXoVtfmfIjfUF4dEodWoihfkZa2/E6hFA8HmLGA5KnKd6DtnPsvivHpo7a07EphzfHUJwLaGfGIJzS3gyrtBvj1l5FLAkXr4lhalP1sMw2jK2co4KyiYnwzTKipUyemjZTj4Lv/+M//iMnUf/P//k/6aqrrupe8nHYinDY8eoztiGgzqn+UPqaNlBHx6c91cP31tOW2oNQaG91cn7U2fFpe4OZNnEM6q7f+Ixm+s5gII5uve/oaJ8xBKUqGIcTpfMSosZOOhiIldFWWTpcIzoHt1VYILfAo5rW6A/qwyCaqdNQHFs5R4THgCBknRqlHsRfLqx+G0ZsQPja176Whfnb3/529jSmhjJtS4wMFj2dW5T1iBARLgNOFQxX3ymC4rc8IShB0AsM0U1uvE5/u1fmjDPO6F4aFOoFJZQiCHqBofAY5C9cIekr1Am6CA8lCHpBv3cZGZLMBCb4OPU5lFCKIOiF4qF4hZj0jxCUIAiapjPmNg6CoGpCUIIgaJ7u1GsIShAETdNSC3ncTx+CEgRBZYSgBEHQPBHyBEFQNSEoQRBURghKEAQV0BXzhKAEQVAJcWNbEASV0J2TDUEJgqB5WvK/EJQgCCokBCUIgsoIQQmCoDJCUIIgqICutOx0/8Q2D4H25HFzpHiAcSOO11PJPR3dA4U9MNpkUfXTV3ootaePm5rBFAemi6inTFvhKeeeKl4/HYWHBJth37upIDzBPAimJ7qe2Nb1RLvpfl4egkIMzB9sugIv86CYuc90BKZeMNeMp50THnPKmF7DPD0FT0M3C75Z+D29q34ZPCbQjPjm1CVIpisoU0F4ArsJxe3T9AhTm6oiCEYbBuVJH07M79N9yEMUGfjRRx+dHzR86qmn5u8YvM+mfjRPr8mvzZtDgMx9QmQKJlgyxwkPx7wpjRBcU0qYCsF6JsQuU2xaRpCITvkuCKZXpnsPhWqa78TESF48kR122CHPCvg///M/+Tuzy/nevLUEQejiO0JkzhShDpEQrphg3cxs9dSHPOY/MfO90EgZQp3tt98+C06ZxU8IZXY703qaDtVk7WaM097qoSzTatq3Mkzh8LnPfS7Xzdww1ivrmH/G9JjK23///fME4cpTZ8sixAqGmhnKQ+kvRXjMM0wgzOgGf5vukXdhqsfeJmyCqSXNOEcA9thjjxxCNcLLMUvcIYcckkVK+SBywjJzHZvxz2dTU9qvuhAfZfKeeEymPCVUvCIe0H777ZfFiYA5FtuaO5kIBcFwEYJSB8+DF8HLMOKb0pKxyrfInfQ2SXaB5yBHIqnL8IlCY5jDazA/rXmNTUt5zDHHpFNOOSULmekrvXxvdjo5HqJEFHg4tlUXZRIl68jLEBjbmRnu9NNPTyeeeGKef9cMeKahDILhIgSljiIIwiDzxTJ8E06bW9fcsQy9L3gGhMfscuZx2XrrrfNcyfUIY4iCnIpJxnkZO++8c/ZKCIN3XpB6SPASCvP/Eg/fF6GzzDpCGqGamfxtKzHsipa5bE877bS/u1oVBENNCEoDckY333xzvlTOi5CLkKgV7vRnTlvGLez585//nMMRYmH7gnKFJfJSPA7hDIHxvUvXcjvmwjVxuHDIxODETTLYZNg8E3Pt8lKIHK+KeJ100knpwgsvzF6NPIqXycgbPaQgGAo6W2qv2nsISgPCBIJiom0z2/MQJFivvfba7jWmDiO/5JJLchjjknX9FSPX6oUm9iNcOe644/JL6OOKk5BLLuamm27K4kRwCI9wS3n+FgIV0SFWRERoI9T6yU9+ksVFHeRUeFlBMNR01LxzU6GFoDTQ3t6evQTegrBCuMNwXW3pL8oQjvz+97/PV22EIgVCoGz3uvA8SiLY/SrCI/sTermaI2yxDg+EWFhPSOXemZdeeil7QpK8iyyySL7is9VWW2UhJEovv/xyDqGEVUEwXISg9EDxEIQ/Xrfffns28oHAuxAmuatWGQWeiTtpL7vssnyT3f/3//1/6Qc/+EE67LDDcr7GdvAul8OjKZewiYjQh1fi8jPxUK+nnnoqC5Dw7Nvf/nZ+8awI4UA8qyBolun+PpRGigcirGGIPcGIeRYSntdcc01et/Hek3qs70Y5wuNV7pItnoZcB8PmUbiCJOThwdi/+njxKoiMMMh2ypSEdSu/Oki6lrrzVIiS5eVyt7K8bOelPHkc2/scBEOFPsjz9j7d/5ZnJCNcEeq40U2IMlAvqJFSnjwL74U3FARDjQFLWO49lGIawuNg+HIlzYoJSnm8ohCTYFoQghIEQWWEoARBUBkhKEEQVEYIShAElRGCEgRBZYSgBEFQGSEoQRBUxlRvbHv33XfyjVdBEAQ94R4qPwtxH9RUBaW9fXL8BD4Igl7xQ9fyM5KpCspbb70ZHkoQBL1CSPx0pF+CEr/lCYKgL+K3PEEQDAkhKEEQVEYIShAElRGCEgRBZYSgBEFQGSEoQRBURghKEASVEYISBEFlDPuNbR6kPP/88+c5ez1Mub94Rqonvz/zzDPd3wRBMBKov7Ft2AXFpN+bb755nu1uILf0+70AMTEjXzyAOQhGDtP0TlmTVJkNb6C/D7L+vPPOm+cFHu0QaPMem+rUFKJBMJopc3d7H3JBMUmYXyub+Lt8FvbUQ9lMVtXXZFqFxm2nhn2bRe9zn/tc2nTTTbu/7fKUTGS+//77Z28J1l199dXzLH4bb7xx/m4oGD9+fJ6I/YgjjhjS/QTBcEBIZp999rTkkksOvaAwUhN+myazN6+EoJhPxvSfnqtQJbwB8wXvvvvuaZtttsnfEbV55pknffazn0377bdfrh/kdBj4nnvumacJ7Q8a8pBDDkmHH3549rz6A1FcaKGF8qTniy22WPe3QTB6YWfmAh9yQSEiErCLL754Hpl7w3zC5uK98cYb8zy+RKYnBjotanlWg9zQUkstlQ2YyK2wwgq5XhLEyy+/fF7X99bx3l9h43ltvfXWabvttsthTBDMqBCVIZ/bmIgY7QkLwVCWScHrE73Ew1zCJgKX3HnjjTfyvueee+4p8RmIg3WER/2lJJnXXnvttMgii2SxMlPfjjvumOuhLOuYe1hd99lnnzxP65lnnplef/31tOyyy6a999477bLLLmnLLbdMG2ywQa7Xc889l70u3skaa6yRpwAlKJ4JYU5k69hmr732SltttVX2fIRW5iM2Efoqq6yS60RI11xzzew9bbjhhnk72ysnCEYDPG79VY5zWJKy9VeOpgZx8bCWO+64I916661/t62/B1JWoVwhmjBhQjZqwrHMMstk8SIwwo+VVlopeycMmuDwaoQz++67b9ptt93SbLPNlidBF6YceOCBWVjUhUC66kQAiYPP8jM77bRTOuigg7KYEi3ekPCKkBV4QksvvXQ+EY6b6BxwwAFZYIKgPxiYhe/rr79+HjB7Qj9bccUV8wA20IshA4FTMCyCMhgPh4H1dPCDKYtH8NBDD2WjJxpe8h1PPvlkuvfee/OVI3kUXoPGf+KJJ3KCWB14FOeff346+uij029/+9t08803ZwESJt11113p9NNPz+vIAV100UU5D6S8kq856aST0q9//ev8TtjWW2+9KbkW9Xn00UfTL3/5y3Tqqaem+++/Py9TjyDoLwZKA6LBrjGPpz8L7y0zqNVHBlXDxoZFUPpDEYqS3KG4VLVeQAYjJhDC3Hfffentt9/OmWghipNw5513Zi+IoTshvBeuG0GBcO+GG27IwsJLOfLII3OYROi8lCf0sY2XUI0Q2ceCCy6YvZxrrrkmC47c0I9+9KP0u9/9LpcLgmJfhIRXRuG5j9PDpfFgeOAl63fSCW5B4IUY8FA8E4OlfnXPPffkvl41PPSSphgxggINIEQQTnivyrAYO4MVyhArHoDwRAPzUiwjAhRcGOQ7SLjKm8iBqI98jsYjML1hHSGM9/pL4fZ35ZVXpssuuywLR6E+hCOYObE1wEvjwYyL/qOP3X333XnQLKLi4gMvuojJLbfckr3hvvpuFYyIHApDIh7uzdAYPIX6ZGxBOVMrqzeEPbwB+Q15ixdffDGfBN6C78WhlJ3HIa/CA+EququXJ3LMMcekU045Jd12221ZoHrDCEC4vM8555w5WQvH59K1S9VxM1tQJWxCHxWC81TcJiG0dk9VERMXM4bCO2lkRORQjMrlzlFJ0b4YbNijMQmHxmfkjz32WM578Dh4Kr4nNsIU7psTQRB8Z5n1/C2ZS2waY1GJXolbYvPss8/mJLBcDe9GcnejjTbKCVehnLKCoEr0Ud61MJ6o8JL1UyG93IYBdTgYdg/F340jPJFwU1l/fiwoThsMjFgClpILP+QtIL9C2YmLRic0IED+th5h+Na3vpX+4R/+IYc+KJ6H9fxokYdDMAiIy80uO9vXwQcfnL7//e/nu28dp8vTBCsIqoZtvfnmm/kKqdyf14MPPjhsYoIhvw9FXsS9HNSScSpzjjnmGPBNYLYz8mugvkKO3tDYDFwZ1113Xb5aU+5BEYMKdZwA7iGl973lPA3bQAzqSg5RcNIsUxdJVyKifHGs74U9cjFCK96L8MrVIslZbWpdI4kRxE109kdoiJs6VH3HcDDjYJA0QHoNR5ij79qn9yH/tbHcgXsvJDjPOuusbKTERNJoII8v4FUwbAY6nBBTgqDO6t6Td6F9iKT1nMTiRZVthXEExCsIpjckeg3C3odNUOQX/vKXv+TwgKHxWLz6CyOlgkEQjCyGVVAkMv3WxRUU3oXQoL8QEHmPyDkEwchlWAWFFyKH4ncvrnYMBCHGBRdcMOxhThAE/WdYBaXkEXgo5Zko/UVCyWVc+ZMgCEYmwyooQRBM39QLSihFEASVEYISBEFlhKAEQVAZIShBEFRGCEoQBJURghIEQWWEoARBUBkhKEEQVEYIShAElRGCEgRBZYSgBEFQGSEoQRBURghKEASVEYISBEFlhKAEQVAZIShBEFRGCEoQBJURghIEQWWEoARBUBnTXFA8xNqEX56IP2HChHh+bRCMYqbJQ6pNRG4u4Pnnnz+/E5IxY8bkaT3NQWzuHtN7mj5jMNOOBkEwfEyzp97zRswkuNJKK6VPfvKTefpOnwlMQaXM/WtyL/MDmzne9J5BEIxM6gVlyCdLLyhDWGPCrxVWWCHPFSzUaRQr65lg3brzzjtvFhyVNaH59AxRXXDBBVPtfOQTE3MRBaMFTsiwTZZeENYQk5VXXjmHN/UIa4Q5PJbG+Y6J2uOPP56uueaaSiYbN9nYZpttlsOtG2+8Md1///3dS6YthHP33XdPa6+9djr//PPzPNCDQfstt9xyadNNN82TtJt98dZbb01XX3119xofR5tYf5lllun+5iNMtvbII4+kSy+9tPubIPh7ht1D0cmXXnrptOaaa2bvox4CRihuuummPMPgnHPO2b2kC2LG2PDcc8/9neANFMexwAILpK997Wtpk002yV7AzTff3L102mIO6O222y7VBD4b8J133tm9pP84vvnmmy996UtfyvNJ8/KWX375PBXs888/n9uvJ6x3wAEHpJ133jktvvjiackll8zi4uWzdrrhhhu61x46nP911lkn7b333lnknnjiie4lwUiGTRYPZcgvqejkBOFTn/pUDnEaIVrPPPNM7jzyJT0JBhHSuYlBM9j/WmutlcWteExLLLFE99LRD+HWToT72WefTcccc0y67bbbsqg47t5wjhiw7QnsT3/60ymvX/ziF8Pmndj/iiuumD01/SXoH86ftusL6zQO5kPBkHsoDnSxxRZLq6yySo/lGP14J5Kw9rfwwgt/bA5k2/FULDfX8WDh/RiJJYSFOupFzB544IGcwyAuhxxySFpqqaXS3Xffnb2GnXbaKb8mTpyYXnrppbzOoYcemg2XAAqd9txzz7TbbrulrbbaKm288cb5GHgDjm2uueZKRxxxRA6zeEU8ECHeq6++mrbZZpu0zz775PeNNtoo71cdb7/99uyh2P8uu+ySR2zrCEt4G6+99lpur0a0teXWU9cLL7wwrb766vk4eRh33XVX95p/TwkDCfbFF1+czjzzzPToo4/m12OPPZY9SMe211575U5J/Imz4/nsZz+b6yksFWLtscce+WX99ddfP4exTz75ZPY+tt1221wG0dCmvKh11103l6U9Dj744HyciyyySN7OFUBX+rT9lltumfbdd99chrrqT/JqrgbOyLAL7cSzE3K8+eab3Us+QtvLW/I8taf1qmRYPRT5EhOlFzFxWZjB6ODyItdee20+SJXRca+77roc71vOqHQ0MBZCMNh8jnpw3xmczl9yFCUMy41RK3uDDTbIRsy4eVa77rprNnpCYb1VV101L5enYIiExHJ1e/nll/P3RIsBoIgSUZAfYTzKsV/ixSgdm5OujHLFqxjsQQcdlPepbdTfvoQmPSHf4di81OMrX/lKWmONNbLX0VcOpT84ViEZoSifN9988/wdEdRWhGT//ffPAqa+jpf4EjjHx0siQNrD+tqBQBAK5wUGsHL7gPOh36y22mq5rdZbb70s0pL12l1ZzXqt0wO8be2nvYlG/cCtHxFf/Y1QD9Z++suQC4oDEKMXGK4EjtHSyyjPEMADMZrxDrx4I8XANJKG8xoMDMBoqC6SlF5GcaOlk0G1JYbt00jL5fa9k0B9GShvRPiAhx9+ONdX0vOyyy5Lv/zlL9Npp52WrrjiiryPepdd2XIYRx99dDrppJPyyM8j4clYX2hyyimn/F3IpyMwJAYjbPn1r3+djjvuuLxf5c8222x5vXoYohGbB2HUsg/7sq127Qvtq8wdd9wx/ed//md+/fCHP8yi5LidK8egTbQFQfC3S/sGCB7b9ttvnwXB8TjOc889Nxs/4SnwNgwUv/rVr9Kpp56ann766RyCamceFfFThvPPU+KJ2Q9DefDBB3MbOB5laKP6vjUjor/ot9rLOS8hfbEXfciAZD1tVmxtqBiWHEr9fSZGKkZptGVoxYAKPnsJFShrfYchTrYfDDofleYmM1Cezz333JMvX3PNQTh0Wh6De2WEC+ouJOJllfDB6Mv4dXyelE7PIznqqKNyWepYX0/HydCvvPLKbOyMigGqyy233JK/I2SMs7ij1hFu2Acv48ADD8z7vuSSS9I555zTY8cgmuqhA/H6jOYM32uLLbZI3/jGN6YcayPanECqQxF07SNBTDS1l3YgEISKYEoAay/C7Hi0Ea+Dl8eTIjza0jYFnofjUi6B0nbaSh21keMt66mLY+Bx2b9+IyzSL1yh+81vfpP3PSPjvOlH5ZyxG6KijfRXV1X1FWkFg0vpX0PFkAuKA67v/ERBR3SwRp1GLOchcG+JTr2LpqzB3DmrwxaPg4Bwsb/zne/khueue+cJ6MQMnAHxXLx0ZKEZQRKnuleEADAkIwDj4vY7cYyJKPVURyeSwcIxMX77M7r0hGV//etfs+fD8IRcjFT+gGdjeT2E2wglHGOcJ598cg7rGHrJTeywww5/Z9yNMF5ie/rpp+fX73//+1yGGwt1WmGTY9AO3GvHyTtxbLwb4gGdmahpU+KhvepxHutpHHTq0XeMrD//+c9z3ksiXc5K6OXY1HlGp4iKAUBbGYT1af1XPyG+xKT0v6FkyAVFZzOi18OgGDID6AmG2RjvFWEqI9hAkMcocbwGJxjKEwZ4yZcwAA0umeoKCTEjeDwRJ4ThW4exCjuMrP5mqPIzxx9/fDrxxBOz+BCVvtAmwj4iJfnYE+oqkeZ4GfbPfvazdMEFF2ThchWEqNTDIIklwTNqn3feeemss87KAqFzEQDf95aYnRraXlvwpAizziqhrW3K8ei8vAphidexxx6brxSpx2DRF+xLGzt+5WkP+SZ5KXUJPhKVe++9N91xxx25vYit88PDGw4xwZALigPpyS01upUrFYyBuBjhdE4N0TjyWN9IOdCGUTYjE8Lo7HIVYnwvnV4Og7fA4EAMqDmx8P19992X6++kcOmdOO46CJ7RwAirft65+bbzd2/YB+O0D/kFIy1R815GamLDK5HktF8dQ8ihfYhxfUiFItyy/DxAsbPjJaDqrA0kjfsKERwPl5n3WF48O3fvKoMQc6vtX514DMpzPOVv+3Fc1nMOeTPapL/Yj7ZTBjFxnARRcprAEkQjsbKJsboEXWg7AxBRMbBdf/312TvsyWMeKob8srGDdEDif0ZS0CG4ywzIyM/ghTr2p4PqsPX5E+tLpLpkOhAYN/fYFRPbG93E6sSM16FcYYvOyfh8pzMLuYQ7ZX2GxjiMyhKORgMCyItRd6OoHE1JWCpfiMAohCFGcF4DGD/jdAlafsT2EsblKo92McpoL/kI4iCMIDCOx30hOkx9KKmdfbY/IqBc77Yt9RGWOCYeVj3KJGxyFITdcdivl2MW2mk751Fux6Vv50jb8PDsW3t4dy4JgP3K5yiTeAp9HCPhdHza2n6FcM61UNN3jln5vnNOhHvaSj0cEw/NuSSaDOaiiy7K+w4+Qj8otxboa0ON864/eB+WW+9LJ5cQLOKkE0hoct2FN8ISlRJyGFmFHDoVCBuv4KqrrsrrDAT7ZrDK42U0uvw6tQ7MRdTRiYc8A4+F2PAMuPJGXiO2k8SYQVBk1B0bw3FMjEd78RZsC+EWo5ATKRh5GQcDJLZGd1c8CIoyGD0hYEiER/15H0YfL8LWiP2qO0EgdMUrMUoRaqO5/agXYSgwYiLgPDRCRNSrHEtpLxCBkgNyXktCkKclf+I8Om+8Fe3meJ1v+SfHaL/qShx4OI6Z6BEZ7WK/rvxoO2LimJStD2gD5TSKYzD8EK1y6/2wCIrOZrQhKCXm1VEZiE5eX75K6fwMXIfzuVwh6ctdn5aoK6NgpAP5ZbR2ISw8MwLUmGtCWUd+hLD1p3zbECNtq0zGXL7XpkawoYqpy76db+e3p2OaGtqTMBL0UneUdlZ3fSIYGQy7oEAZOsNAbndXQSOsexN4F/V1C4JgZFAvKMP2+AJiUD/iiMsbE4sF6xqNxd3iaq6vygZBMPJgr8OaQ6lHWeJk3ooEoJf8CXERMshDiMu59rwTf9fXKQiCkUW9hzLsglLg9UiYEhdxvfiYR0TpiApvJoQkCEY+I0JQgiCYPqgXlFCKIAgqIwQlCILKCEEJgqAyQlCCIKiMEJQgCCojBCUIgsoIQQmCoDJCUIIgqIwQlCAIKiMEJQiCyghBCYKgMkJQgiCojBCUIAgqIwQlCILKCEEJgqAyQlCCIKiMEJQgCCojBCUIgsoIQQmCoDJCUIIgqIwQlCAIKiMEZYCY7sNcxCZHNwVIfzBdiLmPzc0bBNMzwzZzYEFZJtw20ZfZA83D4/H7BVN2mHTbXL7WHejk6L2hLHP9brXVVukzn/lMfjctqjl0zcFrQu7+QET23nvvtOWWW6Znn302Twg+NcxdfOSRR+YJz6+77rrub4Ng+sDUO2XmwGEVFGIx//zzZ0Neeuml80z8jNzE1yZPN5KvsMIKabXVVsvGZwZ/+3711Ve7Sxg8Ju8+6KCDshjYt/0utdRSeVZ/k3ubxd/kYlODoOy+++65jrfeemueLnVqEJQvfvGLeXbE8847r/vbIJg+qBeUYQ15GNTKK6+clltuubTQQgtNCR28Fw9izTXXzJOpf/KTn8yGv+qqq2aPphl4QltssUXaZZdd0ttvv52OPvro9OMf/zgdf/zx+fP222+fNt544+61gyAYLMPqoTDstdde+2MCwTN45plnsvfyqU99qvvbrjCFV/PUU0/1OyTpCUJ18MEHp9qxpjPPPDOdc845ucznn38+exyrr756Lv/qq69OY8eOTSuttFLaZ599cmhEiCzXFtZX90033TTX1fo8FHMzW3evvfZK22yzTdpoo43SggsumMMhxzb77LOnXXfdNQsqId1xxx1zGcsuu2x67bXX8gTyZb/7779/2mmnnfJ+eXKmaX388ce7jyQIPg4bYVv6aG+0tbXlvtTXOoNlmnkociXyFfX4jpegMozPhOkF3/ncn1CkLxir8Mp+HnrooSmNSiz/8pe/pP/6r/9KF198cW50odYhhxySjb4I3w477JAFiWfViHW22267vJz3ZV5m6wmvfF9QthBulVVWycckSbvffvvl/YCw+UyYhGCOffPNN8/lrLXWWnmdIGikpBEMYrx9n+sxKBvwDE5lgBoK7De/uj8PC1Ts/vvvzyMyGLbEplGesPj+vvvum2LwhMRnQtAMDpSRNoqTvA1P5c9//nO65ZZbcmOvt956aZ111kn33ntvOuaYY9Ipp5yS7rrrruw5+b4RQkAUbPv73/8+h1EnnXRSFjGCQETg+OSKLD/uuOPyu/bYcMMNcy7HCGMfjvX0009PJ554Yrr00kvTBx98MKWMIOgJosHzlQ+Ug6wXFQOeNILBzsWO+gsgVWH/rn7q88MqKITi6aefTtdee2264YYb8hUPhly8FsZ+55135lDixhtvzO8PPPBA041QQqepISSh8kIUYZLcys4775yTqgzeFaF6NKB8j5e/nTShkrDO53nmmSdfzYJjePnll/NxC50cp7ZQplCM2PlsX8IjoZOQ6bTTTkt33HFHLiMIGtGvXLS47bbb8kUN4TlR0eeLmPCY2Zh16iOAoWBYBQUOiEfCoHgBL730UveSrhDHgfNKLBeeCEuaRaMLRYQdGr3gs1CIcBCB4sk4GTwOV3KKG8mzevHFF7u37ML2BEOZ6i5css0yyyyTPa/GK0fqUbwvf1tWlN3s9TybCy+8MAuMPIqXDlFf5yBohKfLVm6//fY8KBIVFzN4LEJrXu9NN92U85RDzbAkZW0vjnPlhtExOKM6wzFCM2JGVRI7PssbWJebxjuA5YOhNLL9MXKCBeVKfkqE2q/Qxn6td80116SzzjorqzovimdRwrGSlP3rX/+annvuuVyGcO03v/lN9rps4wS6rMzrsB9XmCR+hVdCLaESwXCstiEwbnwTgin3iSeeyMe/7rrrZtG95557cp2DoCf0S4Oxd/1XmGywM5Dqu/qhPj5UlIFyyD0UI71QYJNNNsn5CSOuXIHkpBdDl5vYYIMN8nJXRxgXr4DKWp9RyTUY/UuidCAQRWGWciVK119//WzI9s07IQ7CkZLjmTRpUvZcCACRIWq2IYj1EAbhi5MlvPF68MEH0+uvv57r7vhKqFW8oW233XZKEs2JL57MIossku+RccPdK6+8ksM9dSJGwq8gmBo8XikC3r3+RkykDvRPfX84GFIPhdfBGzHqSxoxYt5CMTLlWodIuPHM3bE8GUYqLmRkvrcdo2aw1meEA4HhM3L74QYSEkIlaUrAJD//+Mc/ZoUXesihWI8oEDt3xfqO0ltef9n4kUceySfSJWBhExFRrn3wXngp9isv4lh4HdpDGUaMs88+O11//fW5LZQhE+/ysXdCzFP5wx/+8HehYRD0hr7uVgT9Xd8ZLjEpHsqQCgrvhGERk/5AVY3IGsMVEeEQkYE6yCUokxHzIvoLw6XWwoknn3wyHxNh4hlccMEF6fLLL88iZT3xpnWs6+R4EY7LLrsshzxyQMROolQYoq4E0DaMXv2dSJejhTLWVYYEK+HgwTgOeSRiQqR4Ql726aUDeNmvEOnuu+8ethEmGP2wW/3OADmUYU49RVBaaqFEbZ8f7bT+7/ff/6Dmfr88xaMYKDwLVyt4Gv1F2CG5xIiEQLyEengI5557bjbkweBYeApyGMoql7AbIW68IsIj9CgN1hsEj/dFAIlDX+Vah8gIbRop+yWclrtsHAQjGZrBS/c+pILCwORLXMbqLzwJgmLUF5a4/b6gbozsiiuuCEMLghECuxwWQbEdL0Xuo78IZYiGd9vJqRRKxYVD9fUMgmDaUezS+5AKShAE0z/1ghJKEQRBZYSgBEFQGSEoQRBURghKEASVEYISBEFlhKAEQVAZIShBEFRGCEoQBJURghIEQWWEoARBUBkhKEEQVEYIShAElRGCEgRBZYSgBEFQGSEoQRBURghKEASVEYISBEFlhKAEQVAZIShBEFRGCEoQBJURghIEQWWEoARBUBnTVFBMz2EGP/MLL7bYYnkychODx7QdQTA6GfZ5eUzZaf7fhRdeOC2wwAJ5EnLTbo4ZMyZPz2kqUvMLm8zLfMPmZw2CYORSPy/PsAqKckyAbnrS+eefP88xTEgaISxExeTjJjR//PHH/65eQRCMHNjmsAuKMojIuuuumydP761Mk5K/+OKLeZJyk4rzVG677bb06KOPdq8xOHhGBGyjjTZKyy23XJ7iVCMQrJtuuim98MIL3WtOn/AE99hjj9yuF110UXr66ae7lwRBc9QLStuiiy763e7vPwbjfu+997IxNkMx5vXWWy8tvvjivYqJCr3xxhvZwJ955pm8HfGRZzHfsYnUB4v9H3TQQWnvvffOE7DL1Sy11FJpjTXWyPMvExaNMr3ieA855JB8zLfeemsOJddZZ53cHjPPPHN64oknutcMgoFDKzAsgjJ+/Pi0yiqrpBVXXDG1tbV1f9sFEdG577vvvpwzeeihh/LoSVi8jKi1OqZx48bl7zs6Orq37D9yNltvvXU68MAD02uvvZZOOOGEdOWVV6YHH3wwLbvssmm11VbLnpDP0yvazTHecccd6ZFHHsnfbbbZZmm//fbLbXLDDTfk74JgMBRBGfKQx7byJjvssEN2uxuRL+GNXHrppbnTf/DBB1PqULbdYostsigQAfmUgSJ0+vd///e05pprpuOPPz795je/yQ3A89lnn33S/vvvn/f/gx/8IAvY8ssvnzbffPM033zzZTF955130i233JLXIY5G9k033TS99dZbaa655spiJ5lcRvllllkmCyeP6uabb87b8QIcB/GynTpZh2Dzjuaee+7sjdkfIb3mmmuykZftiLHvrr/++uxR7bTTTmmhhRZKf/7zn9Nzzz2XPvvZz+a6KE9oiZdffjlddtll6d57780eGm9EXa+66qosJo7RsQon1VFoKSRVxrnnnptzWNqf6Dgvf/zjH6f70HA04pzOM8886dVXX00TJ07s/vYj9CkhvpdBpd7Gq0B5wxbyMFAhBk+gJ4iInAnvoKhcQQUnTZqUhWXJJZfMnx977LHupf2HMREO25999tnpqaeeyt8TM0bHoO++++5sQEsssUQ67LDDsrEREsa9wQYbpBVWWCEvtz5jFD643G25cjbZZJMsWLwpjavORIfRP/DAA1lwdtttt7Tnnnvm8EMI5+oWseC9uWSuLKKrfOvcdddduZ6223777XO977zzzrwOb2vjjTfOn3kYRx55ZK6DMn0mTpbj2muvzWLz5S9/OQuIcomOF9HU/kSdh7jLLrtkweTFECrH/oUvfCG33SWXXJKFJRg5GJT0sU9/+tN5gNQ/9ceCfkhsDBTWc07ZVNUU263m8k0fuIqj4zpIRgSd01Wcyy+/PHsdRtDecPA6uu2Nlj1dFZoaGtWoTr3r8yTKZKRGeR4IY5TnYVAE5uc//3k68cQT03nnnZcNdMcdd8yjATSg8OxXv/pVOvXUU3PIxssQlh1zzDHplFNOyUJFTFdeeeW8DQiLsOPYY4/N2z355JP5uO65555c1sknn5wNnIDJNw0Eno+Eq7KV4/iIlcvz9fCcLrzwwuw9GTAc6xlnnJHrS2y0lStx2oNIaj/C9frrr3eXEIwU2JK+aJDRz1ZfffUpfdR5M5AQG7kz39eLzVAw5ILioLhaRjadslyt8ZkRMcTnn38+f9cTGowI8BaEG0KfgcLDUo+pofyVVlopq77EJc9C3YgeY3JS3D8DJ5HQOR6eC7EkfkYAo7tlwgNl1Yd6BIXoEDLrFDfVd8TFi1vqOI04/YWnJxdFnHkb6qBcbc8LqUfd7YOYwLlQVyIvpPK9duCtETZ11B7ByMN51/ecH+e1iIq+zMvlmbhp1CBlHf1vKBlyQQGDpow6rYMStjAW7n7ji5veOKISleJqC6EGikY3KjPuot7wmUAIJ9Zee+0p4ufECBtQDJWoGbGdpIJ69UUZDRpDxr62KyOObQYaatq2sWzH5Dj7A0EkkF46oUvszgVx4r0EIxMi4fzwsvUdXikh4ZkUMXHl1GA31Ay5oOjgRkodmxiI8ST/jM4OvPEl+SifUA/DKkIymPiveABErD6MoOLrr79+OvTQQ/M78TBKM0DhC/wtgSoMIErTc1LSueIJ3n777VlY5WSEmDzJZi7ZB0NPvajo7zxMfV1/LWLSONgMBUMuKEZpI3wxTJ+FCMVTaYR4MPSCz650CBt4CfU5kP7ChZeYJBjbbbddFg8CwTXkncjxEDpekPyG9TbccMOcR5B4tY1Y1Amz3nCiveovn2tDwuvvZtHBtK+2KJ6b9r3xxhuzsLpaJdTTJsHIh5DwJomKfmoQJSbC9uEQEwy5oHDBHJAOKyYnLAxW3NfTfR86uNDClRnbeFFa21Fb5Q0UQkFQJCwZ4j/+4z/mS8Rf+cpXcsjje5dSrceYJIsZ0ze/+c30L//yL/kelvvvvz9fNh3M/puBgV933XW5DV39cfn78MMPz6FXM3XR+SSVeR4E9ktf+lJuG2XKwVjmXDhHOmkwOnBehaxyYZLuwykmGPLLxg7GKCuMEUZwqSX5ykG6jFl/5aYIikSiqx9Ya621cl00kJFzoNgXw5EIlfR0TEZ8HscFF1yQBUQIVr+el3oTGfdoXHzxxflqiO/UQcKWl8Xbsh0vwhUSo0P5zuguXDDCGzHqP2sDwupdiOFV/511rKtc+Rwdg6cHy1zC1WkkYa0jyao+BMDxqScBJpC+0+716/isPuJrx6jORNO22t8dxDw3V7jCQxld6EP6qHM5XJTBbVh+y0MwjPgSrjq/G7a4Y0IbYYUrCUKKRqgtYyJEjJX71syoDMfC+5FPcZlVfXqCR6ROJe/T7H6bpdRb+EdwiEAVODeEmyekLRyvm+++9rWv5X1+61vfyiIcBL1BM/Qf78Ny6z3FLF6BsIe7budGSMah47rPoxFGbbTUoY2sg8mfNGK/jNFo35dRWk+djeTqP60p9TbyVClujs0xKlsuxY13++67b84d8cyuuOKKEXH8wcim9MlhERQoixEbEeVEjIru4HM1wT0XOnAjtnE7u6tChCcYWuSr/BKbkAup3LZP9INgahRBGdbnoRAmV2uEP66PExUVsc/6m7hcGpa0lcfw2x2xfzD0lDCPV6j9qwqrgukb9ltCnmEVFBAVoQ/vROcV/vBSjI6ERFKUJyOe55VUEeYEQTB0TFNBqadc0ZGcFQq5MuEGnVK5IAhGPmy12OyQ34fSF6UivBEutnhdzibEJAhGJ9NUUIIgmL4IQQmCoDJCUIIgqIwQlCAIKiMEJQiCyghBCYKgMkJQgiCojBCUIAgqIwQlCILKCEEJgqAyQlCCIKiMEJQgCCojBCUIgsoIQQmCoDJCUIIgqIwQlCAIKiMEJQiCyghBCYKgMkJQgiCojBCUIAgqIwQlCILKCEEJgqAyQlCCIKiMEJQgCCojBCUIgsoIQQmCoDJCUIIgqIwQlCAIKiMEJQiCyghBCYKgMkJQgiCojBCUIAgqIwQlCILKCEEJgqAyQlCCIKiMEJQgCCojBCUIgsoIQQmCoDJCUIIgqIwQlCAIKiMEJQiCpujs7EwTJ01OH344KQQlCILmaemsvWrvIShBEDRPTU1qmhKCEgRB87TU/rXmVxAEQRMQkllaxqTZx4wPQQmCoDmEOh0tLamj9j5kgtLa2ppmn332Ka9ZZ521e0kQBNMTnbV/77VPTG9P/iC1bLjhhp0u+xTq/37//Q/SK6+8nMVhoBCRffbZJ62wwgrpnXfeSZdffnn6xCc+kdZYY428/N13302XXnppeu+999K+++6bv2tvb09PPvlk/v6LX/xi/q4wefLk9Oijj6Zzzz03zTfffOlzn/vclO9OOeWU7rW6hGzxxRdPhx12WPc3XdjPFVdcka677rrub4IgqIKOjo709lvvpPba+5AJCqP/z//8z7TFFlvUyngl/fznP0+rrrpq2n333fPyN954I5144onpb3/7W/qv//qv/N2kSZPSLbfckn70ox+ls88+O39XUGlic/TRR+dtTjvttDRx4sR07bXXpkMPPbR7rZTGjBmT1l577XT66afnz8p8//330/jx47OYfPOb38z1CYKgGuoFZZrlUMaOHZuWWGKJtOCCC3Z/83GIG/E46aSTsqhZd6ONNvo70WupxW7EYrHFFktzzDFH97dd8HieffbZ9Ic//CGvs+KKK2bvpSfa2trSvPPOm5Zccsm08MIL5/oFQTAwppmgjBs3Li211FJTBKVeJOrhyVx88cX5b0YvbKKIIDILLLBA9jq+853vpH/6p39KK6+8cl4GZb7++uvpxhtvzJ/t89Of/nT2nP71X/81feYzn0lHHHFEWn/99bPn9O///u/pX/7lX/Kyb3zjG9mjCoKg/0wTQSEIwpVFFlkkv3yWZ2mEIHgJW0BAZppppvw3eCdzzz13zststdVWaeedd07bbLNN99Ku5RMmTMieEGz/yU9+Mud29t9//ywm/l5vvfXSl770pbTllltmL2XNNdfMyw8//PAsYEEQ9IdpdB+KZKpQRuJ22WWXzTmO1157rXvp39PoufBSCoTo+eefT5dcckn+zAMp4gECstBCC6U99tgjf7b+W2+9lf8WAi2zzDI552Id26nH9ddfn55++uk088wzp7XWWistvfTSef0gCPqgNnhPs1vveRxyG8SBqEiS8lj6C6EAgSBErvSAR0IgCiW/Qmjuvffe9Kc//Sm9+OKLeRmP6IwzzshJXnWAnMurr76ar0BBWTygIAimTktL67QTlGeeeSb/zVvhZRSIwNRoXKfei7GsLCc4vI0f/vCH+UrSb3/723z5GETjggsuyJeo672exrKLeAVB0DvjWjrSXDOPGRmC8txzz+W/e4KB1xs1kWgMg3rDupKy7oFxeZlXVLDs7bff7v70EY1l93dfQTCjYgj+xByzpLlnn2XaCcpTTz015e96D6UeYuJS8CabbJI/M+4PPvggiwEsF9J4FZTXF40eiLLkTnqir2VBEHTBpmafbZb0witvTRtBkauQN2GsUxMUOYzddtstf5ZnEcIUURCquPTsigyU9cILL+S/+4NylFlyMBKxG2ywQb7yRLx4MI8//nheFgRBz7TWzPHDDz9M700ak9oWXXTR73Z//zGEI3IOjaN6f2CcLsdKfgppHn744Rx+KPPBBx9MV199dfY+eCpXXnllToy68nPfffelO++8M195eeKJJ3JoVAxb2OLWe5/dv0IIJFvLTWgPPfRQ+t3vfpfvXbHcNsort9sLnezHfq17zTXX5CSsesFNb16zzDJLXu5uW1d9ikcUBCMRFx2WX375VLPlfFuEl9sfePMG3ZVWWinbk+/dBiF/ODVPfiC01eRhnpnHpVffHMJb790v8qlPfSr/zSNxNYY3MNdcc03xNNyRqmy5DQcrdHGwL730UvY8Cq62MGrGz5txb4k7WpVLsGabbbY0//zzpzfffDPdc889WWAsdywEsXgZ9kVM7FeDEjNekka3/9VXXz2LiXLtR1nKDIKRisGeSGy77ba5r5YrlGzMIK5/u/1Bv3YTqOUuRLz88st5vSoYV5OH1RedJ9335BtDJyhBEAw9bNMA6YbOq666asoAaAAmHgZHnovBkvAYSF3dLLdPVMG4ls608lzj0uwL1RyE7u+CIBiF8FCISrn9QtrAS45SyCNSICi8fKmEoaCzozO98cqbqa19YghKEIx26qOKAqGRLxTuSAfccccdOXfpokW5F6syarv/8P1J6d47Hw5BCYLRTuNFkyImHuNBTG6//fZ8AcPFjNtuu21KnqUq2tpa0oLz18Kp98NDCYJRT72HUi8mnknEM3nsscdySORihaufVT+aQ8g154SZ0uy1sCoEJQimEwiLK6WurrpszBvhmRATyKd4vIcrPpXS0ZEmv/F6mq3255DdhwLXx/2a2I1ilLG8ZJtln5u5C1WdPKfWr4Fd9u3p8Qd9QcU9usA1epeHRwo9tZmb+yTYXAocDNpKGZ754hkw7llwab788roqdFgxu3se+vo5RbO4x8mTAF3ZcAxuJ5hR4R3oy34t754rosK+3MNVPJOCdltllVXy9wO1l77g7ywxuSPN1NEytIKiE3/1q1/NzxnxYKN11103vzNil7cc9GBheJT4gAMOyIKiMQeC+2E8A8UlN79CHiyy5x6DsMMOO+QTVv97ocHQU5t5edocQRlM+e7b2XzzzdPBBx+c6+hqgPaqslNBm3rGDMEi0lWXXzCQ7LrrrrmNHMeMfDdzvaDcf//9+Y5VIutKT72YwLn3jGf3p1QqKDV9WHzM2DTbPJ8Y2pCH++WpZ/PMM0++9u114YUXpssuu2zKb3kGCxGRcHJ93eMfB4MyvJqBoLiJzujvwUzN0thm2ovrus4666T99tvv75730l+USZC4un4o6W7joXiurmTfRRddlP7yl79kj2oocd60PYOakeGReBlgDWzu9OahuFSsX5aXG0V589at+s7vlto5mNjallrmmy999PCQIULl3URz5plndn/zETq4O/zEdTo9ZfWQap3eKGRZuWNWiPTnP/85q3BPlPWJi3XFkNTaSMkoeVnc8Q033DArug5pRBV2Ue6NN94474vYGfGMsptuumnen58GCD222267Kc+kdafhDTfckEXNaGm/m222Wc6ky6obPZ08+/LzAZ4e78PjLF2643Wsttpq6aabbsrl1FPfZuptH8stt1weXQgD4apvFwbMmD21TqgE27vRyYO9d9ppp3zcc845Z94v79A26ssL4sHYXtu7i1Lo4mcTHo3pHBGH0o4MuLdlDFw7uXnKzx+Ua79lH9raukSHAfTnfPltlXor85FHHsnbNhpEX/UdbJg4WtDHeBvuRNc3tWFPaE82pt9W7jm2tqT28WNSy1yzT7ukrA7GAA488MA86jpQI/NBBx2UO4dOwsj33nvv/L2OrPF6w/oeYP3Zz342i4Hf5+iQPjNCqm26Dr9cLo1e5grS0LLiDI9BEhsnR75BWEVwtt566ywc/mYA22+/ff7Rog4rX+BdLO9v2/JYrMMYZNWNHtb3uEplMCYvgtMXjrm4rtqAwTS2i+PwudTP+trWjyYZuBBHh3Pc6qetiZK211Y+e+cB+Z6R+9uxc53ldJRlv70tY/j2bb+ESpsSEjMSiNutq12EqMS2r/NlgLGucnmgxNEVCzkvIl+Pc9VXnaZ39A8DsUHprrvuyvea9PR64IEH8o1tBo1mcpc9UhOrMbOPT5PeH4ZfGzvhRlcPhvb63ve+l/bcc89sBDofY/vNb36TTj755Px0egk9xgvGorHkOPzob2o5F/uivkZf6xv9je46GuMzwgsfjj/++Py0tvKjQNi2uNDU3LvPvjeaOgZ1dtJM4SFsELbdfffd6dZbb80jvBHUDxFtaxR1Eo899tgcuviRoXIZl98ecT8Zt8t6jdiesB111FE5n/KVr3wli6LydI76dnEc6sd4eCPHHHNMOvXUU3O9GKjj5jFJxPGebr755px3YMzExijuwVN+KMlNJua+J/Lah7d4wgkn5GPUFr0tK2JvHS/iYh9+P+L4nV/tZiAhtLxD6/V0vrS18st2zhljIKa8unr6U6fpHQOI3Br7mNqLd1x9u3SmmeaaJXW+9+bQC4rK68g6uJfOLAQgJBKiRnVPpeci6/gMhaiAUdpWEkmDTS0ut74OyrCU40oGeAF+/KfzEQGNatTur+snXPnrX/+aR0pehUnGhC/qpX49wYtRZ79atj/vjpswyIf4kaK2MKI2QngYJOMhCMIBhs9Q1Lu+XWzPoHhCjttlQvVUtjYuIVA9JTThtRF1T/jnVaiT79WTcRMDSVZenZwLMe1tWWMoat+8DG1HBIVZ1lF/59f2vZ0v3ovtCC+PpHgqhFO71KOd+1unYGjorJ3Hjonvp/Fjh+Eh1TqNTuRRAF5GVAJCaHQGy8XH5TOMwEOF/Q0U2xAFRn3++efn8MbozwgZ+9RwbAyHkev0rrgIPwhoT5Q2O+644/KLl2N07+m3GMo2QtnG340Qp57QxoyWKPGSHNd///d/52PkbfFkeGH2SfhdpmXUvS1r9BzUpZzXxjZXJ+LeG4TDvvbaa6/syfBgPLqip3yI8vtbp2Bo6GjvSG+9+Ep659VXpl0ORWfzCAOxsWQaV1jCsDwjpUoYXBnZudPcap2u5FAIGQ/JyE0gjK5caCMluNoSsvIgOq7QjLck1nc1ptCXEDJeYYU68DocuxG/JxgJD0RcTHx5dr1dlWFkvB/1F0bJ6PPIhFbamJvbiPbgDVhOKM8777wsKo5beepH9MTaBgDCp72Kx9TTMrcC1FPOr7bjlcmpaC/eifPb1+Vv9ZAXcS7U36wG6uX8NEJ8+lunYGjo6OhMr778dq2PvjbtBMWI7aqN0YWbapItrq1OaLSsEp2RdyAhJeloUrAvfOELWcRAHMpvHEy5YbIvI1zpwESARyG/IDyQOBbycOXVV6d3PIRRorMnGJirRzwCRsAdr8/hDBZiqA6uRDGib33rW3niM8ZfBKkRx8lIGbXk8b/927+lr3/969kohRTESzgk0el4XakRmqpzb8uIWj324YqZcEQy+rvf/W76/Oc/n7+XGyGAveF82Rexkwi2rYSsdmsUFeLY3zoFQ0PbmLY0ZlxLeu/tSUN7Y5vOLp43qjd6HZYZJXU4VyB0Fok0ImPktm+domSu1aMeo7gRSbLRiKTz1a+v4zJyncroaz8MTyJUp5TglMBTN4KgDupKOGzrkqu8iTrxbrxsr17W4YYzYvE/b0KndkzKV59Sr5IXAAETKvGMXBJWXiN9tRmIW2O7qBNxcIy2J5AuT5scXhnaigF7up2Xv5Vh/45LvYid9S33nbIcC4GxH+eFIPe2rAiynI7jVp42sa5zU9YVUmlTdeztfNleLsi+1NXxORee8qcOjqkcD+/N597qVPkVjeBjjBvblhadZ5Y0pqVz2j9giVhxh8XKRuypJV6bhZjwLiQBG/clrpfcVCfG0Ih2EE4Qv8ZkqnKNkgyjMVGrXElhl6aNogzZ1a6+RunB0Ff9eqOveg92WSMDWbce50HIRPBc2p4ag91P0BwTxo9Ny8w1Lr3/0t/iiW3DAaNwT8suu+ySQx+XQoUDQTA9MG7smLTgnBPSa888O7QhT9CF9iPUwhKhlBBMniAIpgdaW1vSAp9cML36WjxTNgiCJhk/bmxaYbkl04u1ATOUIgiCpplr1llTa3t7CEoQBM3hTtnXn38xpQ/jEZBBEDSJp96/9PQLadK7IShBEFTA++99mFrbxoWgBEHQHG1jxqSZJkxIs84+DZ+HEgTB9EH75MlpjllnSWM6h+HXxkEQTN+01P7NPuucaUyKkCcIgmZpbUl/e/X1NNMss4SgBEHQHK0tLWnueeZK7RM/DEEJgqBJOj0P5dX8A84QlCAImqK9M6UPW1tT+/iZQlCCIGiOzo72NNNMrWmeeecOQQmCoDk6OzvSxHdeTe++9lQIShAEzeHxHOPGTk6LzTs+BCUIgubwkOqZZp45TZg57kMJgqBJPEFpYmdbmnmuIZ4sPQiC6R+CMm6OOVPbnHOEoARB0BydnhA7ZkzqbGsNQQmCoDn8lmfyxA9qnkoIShAETdJa81AmT5qY2saODUEJgqB5XOnhq4SgBEHQFJ01IWnvaM9/haAEQdActZCno2NSmvje2yEoQRA0h8cXzDZhXHrv9deGbqIv25hndtlll83zCJvUuifctmuC65VXXjn/bfJxk4UXzNO7zDLLpHnmmSfPN2wybXPYrrjiinmZScnLPMS+X2ihhdLCCy+cZppppjzzofmSTYZe5ro1j3L9tm+++WZafPHF0/zzz5/LMdF2YezYsWmJJZbIy0ymft9993Uv6UJ9TXy+5JJL5rmZHbPJucvE5Sj1n3feefNnaGPzKtfXPQhGK2PaWtOnlv5EWmLpxYbOQ2Fcc8wxRzZeBtsbRGDRRRdNq666an41rmv5YostNmW5SccZ+lJLLZWWX375PDk4TEhOSExIvsIKK6QFFlggi8Hqq6+elltuubwOGrctE5kTtEUWWaR7rS6IgfXsd6WVVsoCWQ9xWmWVVdIaa6yR97Xgggvm9ezT/lHq73vHSVi8CKTyg2B6oKMmJW3jJgxtyGMEJyx9eTgMjiEzTsbNG5htttm6l3ahHOvNPffc2cB5NMr0vReKN8FYeTjXX399uvfee7OXMt9882VPotC4baljfT3VRVlFRNSJYBUst4w4gQd200035X1bt94jKft54YUX0g033JBuvPHGPL8xrycIpgfefvPt9P6HZGUawoCFCoxPCCD88JnH0EhHR0cWByFNTx4PA7etcOJvf/tbevXVV3O4I6xgyPWhXH8gUDwKXoSwRF15IBMmTMjLfSZwxE049fDDD6d33nknhzuPP/54DvPqISqERv15LwTSMQfBqKdmm+0fvJuefvDBaSsojJaBzTLLLNloje48FYbbSHt7exYJhrz00ktng6yHwSqP8Pibt/KpT30qixPDH0h4YXv1YPgTJ07MeR3GL0wpnkfZn3dCp36rrbZarlujRwT1nnPOOXM+hVejrCCYHmhtbUmLzD9XmnPCNP61MVFg8IxXvoUBM1IG2Ziv4GEY9Z9//vlsmCV3UrCc8TNcL8+3fPrpp7PhKk+StkAEvHg19RQvptTLfgiRkIwnQiSK91T2R8Csr3zeCcq29RAcgiksuvXWW6ckbYNg1FOL6FtbOtOYlmEKeYgEr4NgGOEZaclR8B4YJg+AkbpKQlzq8xWFDz/8MN1///3p3XffzSJUT/FgCIX9MHDrMfh67MO+bM/weUj2Zz3rg0AQEfX2nc/elV1yPPZHtN577728Pc9DyNNbGFOOzTrKInqRlA2mD1ryc2VrBpLaFl100e92fflxuPIMhiENFAYjp8G9Z7zEg5HyPHgaRMQVIEZtZL/llltyrsO+rMNgn3vuufxZ+GLEt/zRRx/NeQzrqB8vRK6keAzWsy9eibLtW07FdpYrj0BYp4QwthFy3XXXXdnofeeqjDLvueee9MADD2TxUCZPRa7H+pMmTcqiUPbnRSAJn0vV9kuU1F99iRyxq28HAhMEo5mW1JnGT3y79t4xtPehlCsjZfti9Fx/QsVrsQ5BIBbWK0bOsAkKz4EwCDd4IAy7hEcljCgJUF4PD4JRW9+2EqZvvPFGeumll/JngkIU7FvYJH9juSsuJXmrTpZb33eMnjCUJK06EBRlWbd4LQSD2PBSrKNeJXxS50J9O5S6B8Fopa0W7iwy7sOa7c4xdIIyLWHoPBOCwHB7g7Fbj3hZtxmURXSUFQQzEq01z2Tu9ndrg/Bc0zYpO1QQRV5CX2ICIVNPeZbBoKwQk2DGpCW1jBmXPvhw0vQpKEEQDB+dtX+TaoPy7HPMHoISBEHzfDBpYnr7vXdCUIIgaB5PQ3n97Q+mz6RsEMyIuCjgZyluS3BLA1yg8HK391NPPZW/q5p8ufjDt9Kss84cHkoQTC8QFI/S8At4PzvxKr+U7+sX/5XQ4tf3MVl6EEw3uKrJE3EvlNsYvEQX7vNyA+hQ0tnZdcNoCEoQTCe4dcEv3f1ezM2abodwA+bNN988pILiPvpaYFXbX+fQ3Xo/PeEOXHfOik3dARs0h5Gs/PzA6BlUBxHhobi7231RfvvGa3FX+VBhGo00aWKaeeYJQysoblP3CEidh0GWV/mtTjM3grltfp999snxoUazj7XWWivXua/b2f1u55BDDsk/Cah/3GNvEBNx6UEHHZS38dAmPwT0eyInDsVA3ILvVv++Tp44V5uIbdWzmTZQluPfe++9863/fj/UiLr5LdGnP/3p/FQ6Pw/wM4Oh7GBTQ9ttscUWaccdd8zHH7+8rhaiwkPhnRgAh/pcj6Eokz6sCcpMQysoflPz1a9+NW255Za5Q6+77rr5nREwxp4MoL/44eGXvvSlbOSXXXZZ2mqrrbJhMWgC0xt+K/T1r38933Jvu6lBuPbdd9/8WMdrrrkm/w7o4IMPzvv3GAIw5j333DNtuOGG+UeITmZv+I3Rbrvtlrbffvv8KAY/IGRcxFAHGMiPBQn2mmuumQ488MB83J4GV4+62s8BBxyQNthggymPq9QGMv6u6K2//vpp4403zvudmrdAjAayfm/oT0Rlk002yT8edb6KOAfV4Nz6kWr9VduhwjNlWybWBGXc+KHNoTBaI7EOfMEFF+TXhRdemA25iktYvAcvl8g8QPqMM87IvwzuC53ZqO01NRishyYxRp7Jddddl70QRslLKdR7HY3PQWnESRbTnn322TmuZVibbrpp+sxnPpN/rTwQHIukm2PRDvX4Tp322muvXOezzjortw/R2nXXXbPIEwgi77MfPk6Nga7fG5KH2pNAe96v4w9GMbV+2FnzOVprwjJ1q2oS7pdf1Z555pnd33TBCI2YRme/u9HpfcdFu/zyy7NA8AJ22GGHbBgw8luXZ1AvSAzLr4Y9DNq+dPz11lsvj6a+t43HEBCzsr5fAP/Lv/xLHsWVe+211/Y4witHeZ4D2x/vYWrHJWnmuIRIfgG9xx575AdrF0+IwDC2bbfdNocoRK2+fo7HMvsg2MpSfiMERXjpOD0a4pxzzsnfP/LII+mwww7LgmB/vATPhOFhESXHWfatfMdse4m+nta/+uqr83N+N9988yyIvFr7uOiii7LXRGQ322yzXE/CX5Y5JvviQWnj888/P/IpoxiCklrahucqD8MUMngZ8eUkdEbXxnffffe03Xbb5c+MaZdddklbb731lDhbnkQH1gGNjjqyDlwPg/Kk+5133jmHU4Rlv/32y9fhhRQEaf/998+eBhgbQ2fE4kv732mnnbLx1uMzT8S+b7/99u5v+0bZfR0XIyUg9ucRDMI+7j7xkUsQYjJA9RfOeWTDOuusk43ZcQsZHYtjIp7KVmYjjJcH5PELtrMNkSBoxx13XLr44ovzcvkUXpNHRagHwdDm8lySeUKqsr/G9bUt71PdCIrvnWvniAckFOQhbbTRRlmYCJyyLdPutjcwOL/yPMHopqV1GKYiLcIhl+J15JFHZsMv7roYz4Okf/3rX6ff/va3+de/Oq+RmCts+amnnppOP/30dOedd2aD7enOXd/ZF3HRcXVQIx6v4IQTTsheTYkndWYPdbLP3/3ud/lvwqFj12Nfns3CqIUK/aWv44J6KltC8sorr8z7J1qe1E8AGCcxs536eUI+wTSSy9N4tooR3TKeC0NuxDHa/4knnpjL/OxnP5v+6Z/+KR111FFZyMxvJISzDk9C+3jAFNGw3z/+8Y/ZS5QTcv7kOhrX92Buok10PPX/+OOPz+fJueUdEjrHrH5//etf07HHHps9GuJZ6igxTRQJWDB64aCwyiEXFIZlVCs5lD//+c/ZhS7oVDq8jixJaSTTERmd0c+21tfxhAhc6r5QnpGei85wjjjiiDzqEoSSrBWGCUG4375nzMKaxvwHYWDYPRns1OjtuKYGoRGmCB8kb4kAj4aICFMYHiFi6Mo0ypfbrBthuFdddVU6+uijs7ELpRj/oYce2mPeQrvwkOxHToeXJDRTJ55HI8SbF6VOQrB/+Id/yFfD1J2oC3MInuOWyC5XdcrVNW3EK3Kup5Z7CkYwtXG6TQ6lZRjmNq7PoXhJRupk/aUYdX8hYLwBic9zzz03ezU6vfBJuDUQlKXTMyj42+jcKGrF26oKBsbQbrvttvySTP3v//7vnMRUJy/t2hcE0tUYIQbB0Ra8FR4EYy/hXz1EQ1gmVCO0V1xxRRbnvvbluLWHEIiXIi/yk5/8JO+LeMhdyd8454SHkBFIaDfn1vFM7dk1wcildhpTa63Ppo7Jw5NDGQw6KS/CaCeHwKj9XYy7N3RQiUBhgw7NGOU/iIr8ykAoAsI7MNqqU8kjGLm5+/YnR2FU5+kQz4HCsIoo2YcyGLF9EWDhif0I4bSJS8+ex0t4tElPSVnLhHByGLwNOSPH4ph6EsAi3EIb78IsnmFvYlkvJATcS1jzl7/8ZYpHx+uQ4FUeQRN+upVALgfqqF2t77iC0YnzOMtsE2oj8DA8YMnOXBr8z//8zymvf//3f88jYV9w54VHOu3hhx+e/vmf/znH5T117noYjNHVaMhl/8Y3vpHzDvIgDHMgGNklJnV6hsbIhV2uUkjoCke++93vpi984Qt5v74XggwExyckYmi8CaGDq1FCD+GatpJ3kj+xD5fcCY7E53e+852c4OwJ4Q5RkOdw/NZVljZRR8ZfErdyGMIryVN5FEi0ajtenXNItBrXF0oKo3gl1vv2t7+dr5y5H0jY5hxa12Vmy3g+6lXOQ8l3qY96BqMTg05ne2eaf755hvbGNgbAAIUd3suLQcjuM1ZJPh6E7xmszuWzqxFGLfsnBpbp0EZahmKdsq5ydF4d1Wf5Ba660ZMbL2YnTsIH69m/vyVDlat8hmQ9+6vH9jykEoJoE9sp36hs9LWtqyaSqsrnGfV2XK7q8GQYohevg8fDe7CtY5PrYbjqJXQRNhAAx0d8HJeckvYVBkl0qpt9FYQR6qydS9jiO5eeL7nkkry+eqqLF0O3H3VUvrZWZwJmH86hdqtfX9LWcdqHNoHjECpJ2tpvOQ+OQ92JpToIcbSrUNRn3kswOhk7ti2Na5mUFpl/BD+kWgc0KhsFdVYdsNwD8T//8z/9ustVeMRTYfg6+kBx3EIZV6d4Kf/7v/87ZQQnskIPl0YJAgMbLPbD4yFOjBjKl8y0X6JTX75lroIZ/fsTKihf2KY83htRLJTjUF5ZxiMRrhAs4lFPT+ujbGO57+uxTILdOVSedSTMtauQ7f/9v//X593Nwchm5gnj00yd76RVlphv5P440D51UPddyBcwbAYnRneptdGT6AmjslF/sAk/4mo/jEDcrz68kIJyCVW9gQ4G+yEYhK8e5ap/T+Xbd3/aAKV8ZWmTRpRVv8z6vJfeRLJxfZRteqqTZY6tlEeMhGraVMJWAr2negWjg7Fjx6TW9olp5jHtI/uJbQRE/kU8ztswUrvUO9wJPN6S3IaRVr4gaA6ekvtqeDo8vsF4j8HIYZYJM6Wxk99JC8zWGY+ADIKgOQjKuElvpzkmtI/cy8ZBEIwSckakpeaMtIagBEHQJC0tafbZ5khtk+OZskEQNE1rWnzxldKEMZ8IQQmCoDk6J3emWeeeNy237nohKEEQNEdne0ea/OaHaeyEIX5iWxAE0z+dHZ3p1QeeTx1vjuAfBwZBMDpwo8m41pnSC7c/E4ISBEGTtKXUPnNnGpPGhqAEQdAcLak9vfjGU2nMJ2Nu4yAImmXy5DT3XGPSm+NfD0EJgqA53Cj76ksvpscffyAEJQiC5uis/XvrnXfTmy++EoISBEFztHd0prcnd6RZaq8QlCAImqK9MyXzLoxpHYan3gdBMH1THngy07hhmjkwCILpF4JixqmZx4wJQQmCoHnyRC7tkUMJgqACxo0dkya3RcgTBEGTCHk+SC3ppffeD0EJgqA5CMorkyanV9rjmbJBEFRAe+1lspoQlCAImqYz34DfEoISBEHztNTiHpISghIEQUXEnbJBEFRAZ81F6QhBCYKgClq6A54QlCAIKsBDDCKHEgRBBRAThKAEQVAZIShBEFRCXDYOgqASusQkbmwLgqBCQlCCIKiAmnfSEh5KEAQVIORpC0EJgqAKWjo706wzxcyBQRBUQGfNRZncEY+ADIKgElrSux/GE9uCIKgAN95ProU9IShBEDTN+JlmSm1j4seBQRA0SUtLS1pj9dXSYostGoISBEF1hKAEQVAJHXGVJwiCKujs7MyvEJQgCJqGmCAEJQiCpglBCYKgMrpCnhCUIAgqoEtQIikbBEEFEBT3o4SgBEHQFGPGjMmC0tERV3mCIGiSyZMnp8ceeyy98sorIShBEDQH7+TNN99MH7wfvzYOgqACPKB6wtjxIShBEFRAZ6oJyrgQlCAImqe1tTVN6mgPQQmCoDk87X628RNSa1zlCYKgadx139GRZp6pJipd3wRBEAwON7TNPH6m1DFpcghKEATN4Xmy73z4fnpn4gchKEEQNEdHZ2d6uyYmH7RPCkEJgqA5zBo4vmVMGt86JgQlCILmafHognh8QRAEVdCROtOkeHxBEATN01KTE4FPPL4gCIKmcSNKVy4lBCUIgqZx6ZishKAEQdA02UdpjZAnCIImISbtqSO1x48DgyCogo7OmqDURCUEJQiCSpBFCUEJgqBpWltaa6+2EJQgCKrAvDzhoQRBUAF+INgROZQgCKokBCUIgqbpulc2BCUIggoJQQmCoGk8BrLFlZ7uz0EQBIOCmIwdOyaNGzc2BCUIguoIQQmCoDJCUIIgqIwQlCAIKiMEJQiCyghBCYKgMkJQgiCojBCUIAgqIwQlCILKCEEJgqAyQlCCIKiMEJQgCCojBCUIgsoIQQmCoDJCUIIgqIwQlCAIKiMEJQiCyghBCYKgMkJQgiCojBCUIAgqIwQlCILKCEEJgqAyQlCCIKiMEJQgCCojBCUIgsoIQQmCoDJCUIIgqIwQlCAIKiMEJQiCyghBCYKgMkJQgiCojBCUIAgqIwQlCILKCEEJgqAyQlCCIKiMEJQgCCojBCUIgsoIQQmCoDJCUIIgqIwQlCAIKiKl/x+6xMNV6raxeQAAAABJRU5ErkJggg==;" vertex="1" parent="1">
          <mxGeometry x="-240" y="125" width="276" height="721" as="geometry" />
        </mxCell>
        <mxCell id="yo1rX-GT7wiF01aTUaLk-37" value="Side bar menu pop-up" style="text;html=1;align=center;verticalAlign=middle;resizable=0;points=[];autosize=1;strokeColor=none;fillColor=none;" vertex="1" parent="1">
          <mxGeometry x="-250" y="80" width="140" height="30" as="geometry" />
        </mxCell>
        <mxCell id="yo1rX-GT7wiF01aTUaLk-38" value="menu" style="text;html=1;align=center;verticalAlign=middle;resizable=0;points=[];autosize=1;strokeColor=none;fillColor=none;" vertex="1" parent="1">
          <mxGeometry x="225" y="137.5" width="50" height="30" as="geometry" />
        </mxCell>
        <mxCell id="yo1rX-GT7wiF01aTUaLk-39" value="" style="whiteSpace=wrap;html=1;" vertex="1" parent="1">
          <mxGeometry x="1760" y="135" width="500" height="715" as="geometry" />
        </mxCell>
        <mxCell id="yo1rX-GT7wiF01aTUaLk-40" value="Web page - basically steal imdb layout" style="text;html=1;align=center;verticalAlign=middle;resizable=0;points=[];autosize=1;strokeColor=none;fillColor=none;" vertex="1" parent="1">
          <mxGeometry x="1760" y="160" width="230" height="30" as="geometry" />
        </mxCell>
        <mxCell id="yo1rX-GT7wiF01aTUaLk-41" style="edgeStyle=orthogonalEdgeStyle;rounded=0;orthogonalLoop=1;jettySize=auto;html=1;exitX=0.5;exitY=1;exitDx=0;exitDy=0;" edge="1" parent="1" source="yo1rX-GT7wiF01aTUaLk-28" target="yo1rX-GT7wiF01aTUaLk-28">
          <mxGeometry relative="1" as="geometry" />
        </mxCell>
        <mxCell id="yo1rX-GT7wiF01aTUaLk-43" value="Comunity" style="text;html=1;align=center;verticalAlign=middle;whiteSpace=wrap;rounded=0;" vertex="1" parent="1">
          <mxGeometry x="-370" y="310" width="110" height="30" as="geometry" />
        </mxCell>
        <mxCell id="yo1rX-GT7wiF01aTUaLk-44" value="Movies" style="text;html=1;align=center;verticalAlign=middle;whiteSpace=wrap;rounded=0;" vertex="1" parent="1">
          <mxGeometry x="-370" y="200" width="110" height="30" as="geometry" />
        </mxCell>
        <mxCell id="yo1rX-GT7wiF01aTUaLk-48" value="Random film" style="rounded=0;whiteSpace=wrap;html=1;" vertex="1" parent="1">
          <mxGeometry x="91.25" y="400" width="358.75" height="195" as="geometry" />
        </mxCell>
        <mxCell id="yo1rX-GT7wiF01aTUaLk-50" value="Random comunity content" style="rounded=0;whiteSpace=wrap;html=1;" vertex="1" parent="1">
          <mxGeometry x="480" y="400" width="390" height="195" as="geometry" />
        </mxCell>
        <mxCell id="yo1rX-GT7wiF01aTUaLk-51" value="Shows" style="text;html=1;align=center;verticalAlign=middle;whiteSpace=wrap;rounded=0;" vertex="1" parent="1">
          <mxGeometry x="-370" y="250" width="110" height="30" as="geometry" />
        </mxCell>
        <mxCell id="yo1rX-GT7wiF01aTUaLk-52" value="Search bar" style="rounded=0;whiteSpace=wrap;html=1;" vertex="1" parent="1">
          <mxGeometry x="310" y="137.5" width="390" height="30" as="geometry" />
        </mxCell>
      </root>
    </mxGraphModel>
  </diagram>
</mxfile>
